<?xml version="1.0" encoding="UTF-8"?><svg id="a" xmlns="http://www.w3.org/2000/svg" viewBox="0 0 116.14 130.65"><defs><style>.b{fill:#fff;}.c{fill:#8b191b;}</style></defs><path class="c" d="M58.53,130.65l-.7-.24c-1.18-.41-29.15-10.49-45.36-42.2C-3.29,57.4,3.25,21.83,3.54,20.33l.35-1.82,1.85-.02c.29,0,25.57-.53,52.51-17.93l1.25-.81,1.24,.83c.25,.17,24.9,16.55,50.39,17.91l1.89,.1,.24,1.88c.06,.52,1.56,12.83,.4,28.9-1.08,14.93-4.79,35.94-16.32,51.27-17.6,23.4-37.29,29.54-38.12,29.79l-.71,.21Z"/><path class="b" d="M7.71,22.94c-1.08,7.5-4.32,37.57,8.8,63.21,13.97,27.31,37.73,37.94,42.12,39.71,3.58-1.31,20.26-8.21,35.1-27.94,18.55-24.66,16.05-65.83,15.23-75.02-22.98-1.84-44.15-14.36-49.49-17.73C35.86,20.01,14.19,22.52,7.71,22.94Z"/><path class="c" d="M16.41,29.65s14.83-.51,42.17-15.19c0,0,18.07,11.59,42.27,15.19v15.39l-2.32,17.56s-.15,12.58-9.27,27.29c-7.97,12.86-19.4,19.59-29.79,26.26,0,0-24.53-10.81-34.32-31.15,0,0-4.63-10.43-5.41-19.63l-2.57-20.33-.77-15.39Z"/><polygon class="b" points="10.79 65.3 4.26 65.3 15.71 45.04 26.78 65.37 10.79 65.3"/><polygon class="b" points="107.29 45.56 113.81 45.56 102.36 65.82 91.29 45.5 107.29 45.56"/><path class="b" d="M52.13,85.9s1.86-2.41,2.37-6.75l-1.09,.79s1.37-1.17,1.62-3.78l-.96,1.04s1.37-2.56,.85-4.15l-.95,1.31s1.1-1.91,.3-4.36l-.95,1.61s.97-2.32-.36-4.44c0,0-.47,1.46-.88,1.93,0,0,.82-2.47-.73-4.3l-.78,1.84s.41-2.34-1.45-3.95l-.49,2.02s.26-2.64-1.83-3.93l-.26,1.85s-.16-2.44-2.24-3.47l.02,2.03s-.32-2.03-2.54-3.24l.03,1.73s-.19-1.7-2.54-3.03l.09,1.66s-.42-1.53-2.47-2.55v1.27s-.57-1.71-2.3-2.32l-.03,1.08-2.38-1.66s-.3,2.03,.1,3.81l-1.02-.73s.04,2.19,1.2,3.44c0,0-.64-.15-1.25-.75,0,0,.08,2.01,1.42,3.61,0,0-.83-.31-1.31-.8,0,0-.18,2.17,1.61,3.62,0,0-.84-.09-1.52-.85,0,0,.09,1.97,1.78,3.51,0,0-.42,.05-1.71-.52,0,0,.59,2.21,2.3,3.22,0,0-1.11,.07-1.77-.43,0,0,.38,2.01,2.47,3.15,0,0-.63,.3-1.83-.36,0,0,.57,2.16,2.89,2.98,0,0-.64,.18-1.68-.22,0,0,.79,1.73,3.31,2.64,0,0-1.23-.04-1.8-.17,0,0,.69,1.67,3.65,2.31,0,0-.54,.36-1.64,.24,0,0,.53,1.22,3.82,1.29,0,0-.66,.55-1.44,.52,0,0,1.68,1.3,4.03,.74,0,0-.52,.59-1.32,.66,0,0,2.24,.69,3.85,.21l-.91,.5s1.56,.85,4.29,.76c0,0,1.71,3.97,1.64,6.36,0,0,.49-5.22-.78-9.25,0,0-6.31-.49-8.58-3.67,0,0,3.16,2.36,8.33,2.73l-.87-2.92s-6.2-.73-9.01-5.11c0,0,4.76,4.23,8.75,4.35l-1.61-3.34s-5.06-.31-7.52-3.3c0,0,4.15,2.36,7.16,2.6l-1.99-2.95s-3.41-.34-5.78-2.86c0,0,2.92,1.99,5.26,2.18l-3.62-4.03,4.36,3.74s.05-1.9-1.9-4.79c0,0,1.91,1.04,2.41,5.36l1.84,2.54s.55-3.92-1.26-7.12c0,0,2.48,2.67,1.74,8.05l1.36,2.36s1.16-5.28-.12-8.28c0,0,1.88,2.46,.57,8.8l1.08,3.52s1.3-3.05,.83-7.54c0,0,1.46,2.23-.45,8.73l.59,3.24Z"/><path class="b" d="M51.49,94.3l-1.81-7.78s9.08-22.04,30.76-30.94c.54-.22,2.48-.87,3.04-.98,.96-.19,1.98-.33,1.98-.33,.97-.19,3.12-.37,3.53,1.13h0c.26,1.02-.39,2.06-1.42,2.28,0,0-20.74,5.38-36.09,36.63Z"/></svg>