<?xml version="1.0" encoding="UTF-8"?><svg id="a" xmlns="http://www.w3.org/2000/svg" viewBox="0 0 57.55 58.14"><defs><style>.b,.c{fill:#8b191b;}.c{fill-rule:evenodd;}</style></defs><path class="b" d="M.98,57.21l3.98-14.85c-2.25-4.07-3.44-8.62-3.44-13.25C1.52,13.99,13.82,1.69,28.94,1.69s27.42,12.3,27.42,27.42-12.3,27.42-27.42,27.42c-4.54,0-9.02-1.15-13.04-3.32L.98,57.21Zm15.67-9.56l.94,.56c3.45,2.06,7.38,3.14,11.35,3.14,12.26,0,22.24-9.98,22.24-22.24S41.2,6.87,28.94,6.87,6.7,16.85,6.7,29.11c0,4.05,1.12,8.04,3.25,11.53l.58,.95-2.22,8.29,8.34-2.23Z"/><path class="c" d="M39.14,32.92c-1.13-.68-2.6-1.43-3.93-.88-1.02,.42-1.67,2.01-2.33,2.83-.34,.42-.74,.48-1.26,.27-3.83-1.52-6.76-4.08-8.88-7.6-.36-.55-.29-.98,.14-1.49,.64-.75,1.44-1.6,1.61-2.62,.17-1.01-.3-2.2-.72-3.1-.54-1.15-1.13-2.8-2.29-3.45-1.06-.6-2.46-.26-3.4,.51-1.63,1.33-2.42,3.41-2.4,5.48,0,.59,.08,1.17,.22,1.74,.33,1.36,.96,2.63,1.67,3.84,.53,.91,1.11,1.8,1.74,2.65,2.05,2.78,4.6,5.2,7.55,7.01,1.47,.9,3.06,1.69,4.71,2.24,1.84,.61,3.49,1.24,5.48,.87,2.08-.4,4.14-1.69,4.97-3.7,.24-.6,.37-1.26,.23-1.89-.28-1.3-2.04-2.07-3.09-2.7Z"/></svg>