<?xml version="1.0" encoding="UTF-8"?><svg id="a" xmlns="http://www.w3.org/2000/svg" viewBox="0 0 129.97 130.65"><defs><style>.b,.c{fill:#8b191b;}.c{fill-rule:evenodd;}</style></defs><path class="b" d="M34.95,100.94l4.28-15.98c-2.42-4.37-3.7-9.28-3.7-14.25,0-16.27,13.23-29.5,29.5-29.5s29.5,13.23,29.5,29.5-13.23,29.5-29.5,29.5c-4.88,0-9.71-1.23-14.02-3.57l-16.06,4.3Zm16.86-10.29l1.01,.6c3.71,2.21,7.94,3.38,12.21,3.38,13.19,0,23.93-10.73,23.93-23.93s-10.73-23.93-23.93-23.93-23.93,10.73-23.93,23.93c0,4.36,1.21,8.65,3.5,12.4l.62,1.02-2.39,8.92,8.97-2.4Z"/><path class="c" d="M76.01,74.82c-1.21-.73-2.79-1.54-4.22-.95-1.1,.45-1.8,2.17-2.51,3.04-.36,.45-.8,.52-1.36,.29-4.12-1.64-7.28-4.39-9.55-8.18-.39-.59-.32-1.05,.15-1.6,.69-.81,1.55-1.73,1.74-2.82,.19-1.09-.33-2.36-.78-3.33-.58-1.24-1.22-3.01-2.46-3.71-1.14-.65-2.65-.28-3.66,.54-1.76,1.43-2.6,3.67-2.58,5.89,0,.63,.08,1.26,.23,1.87,.35,1.46,1.03,2.83,1.79,4.13,.57,.98,1.2,1.93,1.87,2.85,2.2,2.99,4.95,5.59,8.12,7.54,1.59,.97,3.29,1.82,5.06,2.41,1.98,.66,3.75,1.34,5.89,.93,2.24-.43,4.45-1.81,5.34-3.98,.26-.64,.4-1.35,.25-2.03-.3-1.4-2.2-2.23-3.33-2.9Z"/></svg>