<?xml version="1.0" encoding="UTF-8"?><svg id="a" xmlns="http://www.w3.org/2000/svg" viewBox="0 0 47.37 48.45"><defs><style>.b{fill:#8b191b;}</style></defs><path class="b" d="M43.35,21.4c-.73-.14-1.11-.5-1.26-1.23-.4-1.86-1.08-3.63-2.06-5.27-.93-1.57-.95-1.38,.07-2.93,.61-.92,1.2-1.84,1.77-2.71-1.05-1.04-2.05-2.04-3.08-3.07-1.06,.69-2.18,1.38-3.26,2.14-.63,.45-1.17,.44-1.81,.03-1.8-1.17-3.76-1.96-5.86-2.41-.72-.15-1.07-.54-1.2-1.24-.24-1.24-.53-2.47-.8-3.7h-4.34c-.27,1.24-.56,2.46-.8,3.69-.13,.7-.46,1.12-1.19,1.25-.56,.1-1.12,.27-1.67,.45-1.55,.48-3,1.18-4.37,2.06-.53,.34-1,.33-1.51-.03-.49-.34-.99-.66-1.49-.98-.66-.43-1.32-.86-1.91-1.25-1.05,1.05-2.05,2.05-3.07,3.09,.66,1.01,1.32,2.1,2.06,3.13,.5,.7,.54,1.29,.06,2.02-1.16,1.76-1.92,3.71-2.36,5.77-.15,.72-.55,1.06-1.24,1.2-1.24,.24-2.47,.53-3.69,.8v4.34c1.34,.3,2.66,.6,3.98,.88,.51,.11,.82,.4,.94,.9,.5,2.24,1.37,4.33,2.61,6.26,.29,.45,.27,.89-.02,1.34-.7,1.06-1.39,2.12-2.09,3.19-.09,.15-.18,.3-.21,.35,1.05,1.05,2.05,2.05,3.08,3.08,1.15-.75,2.35-1.52,3.55-2.32,.47-.31,.9-.35,1.38-.04,1.9,1.2,3.95,2.04,6.14,2.52,.55,.12,.84,.45,.95,1,.28,1.35,.6,2.69,.9,4.04h4.33c.28-1.28,.58-2.53,.81-3.79,.14-.76,.53-1.17,1.3-1.33,1.98-.41,3.85-1.16,5.55-2.26,.71-.46,1.29-.44,1.98,.05,1.08,.77,2.23,1.47,3.3,2.16,1.04-1.04,2.04-2.04,3.07-3.07-.73-1.12-1.47-2.29-2.25-3.43-.37-.55-.4-1.04-.04-1.6,1.17-1.82,2.01-3.78,2.47-5.89,.16-.73,.56-1.08,1.29-1.22,1.24-.24,2.47-.53,3.71-.8v-4.34c-1.25-.27-2.47-.57-3.69-.8Zm-19.65,16.81c-7.65,0-13.85-6.19-13.85-13.84s6.21-13.84,13.85-13.84c7.61,0,13.8,6.19,13.82,13.8,.02,7.65-6.17,13.86-13.81,13.87Z"/><path class="b" d="M23.72,13.31c-6.03-.04-11.04,4.94-11.1,11.02-.06,6.04,4.99,11.12,11.06,11.12,6.05,0,11.05-5,11.07-11.05,.02-6.04-4.97-11.05-11.03-11.08Z"/></svg>