<?xml version="1.0" encoding="UTF-8"?><svg id="a" xmlns="http://www.w3.org/2000/svg" viewBox="0 0 47.37 48.42"><defs><style>.b{fill:#8b191b;}</style></defs><path class="b" d="M16.56,16.22h9.03v3.31c.7-.53,1.66-1.23,2.6-1.97,4.45-3.48,12.44-2.68,15.62,1.61,1.69,2.28,2.25,4.98,2.31,7.7,.14,6.53,.08,13.07,.1,19.6,0,.11-.05,.22-.1,.39h-9.43c0-.48,0-.93,0-1.39-.02-5.37-.04-10.73-.07-16.1,0-.35-.02-.7-.08-1.04-.59-3.28-2.18-4.63-5.29-4.51-2.93,.11-4.95,2.13-5.11,5.44-.17,3.65-.12,7.31-.15,10.96-.02,2.21,0,4.42,0,6.67h-9.42V16.22Z"/><path class="b" d="M10.36,46.9H.96V16.22H10.36v30.67Z"/><path class="b" d="M5.63,11.92c-3.13,0-5.51-2.39-5.5-5.53C.14,3.28,2.56,.9,5.69,.91c3.02,.01,5.45,2.46,5.46,5.48,0,3.11-2.4,5.52-5.52,5.52Z"/></svg>