<?xml version="1.0" encoding="UTF-8"?><svg id="a" xmlns="http://www.w3.org/2000/svg" viewBox="0 0 47.37 55.9"><defs><style>.b{fill:#fff;}.c{fill:#8b191b;}</style></defs><path class="c" d="M23.86,55.46l-.29-.1c-.49-.17-12.1-4.36-18.84-17.52C-1.8,25.05,.91,10.28,1.03,9.66l.14-.76h.77c.12-.01,10.62-.23,21.8-7.45l.52-.34,.51,.35c.1,.07,10.34,6.87,20.92,7.44l.79,.04,.1,.78c.03,.21,.65,5.33,.17,12-.45,6.2-1.99,14.92-6.78,21.29-7.31,9.72-15.48,12.27-15.83,12.37l-.29,.09Z"/><path class="b" d="M2.76,10.74c-.45,3.11-1.79,15.6,3.65,26.24,5.8,11.34,15.67,15.75,17.49,16.49,1.49-.54,8.41-3.41,14.58-11.6,7.7-10.24,6.67-27.33,6.32-31.15-9.54-.77-18.33-5.96-20.55-7.36C14.45,9.52,5.45,10.56,2.76,10.74Z"/><path class="c" d="M6.38,13.52s6.16-.21,17.51-6.31c0,0,7.5,4.81,17.55,6.31v6.39l-.96,7.29s-.06,5.22-3.85,11.33c-3.31,5.34-8.05,8.13-12.37,10.9,0,0-10.19-4.49-14.25-12.93,0,0-1.92-4.33-2.24-8.15l-1.07-8.44-.32-6.39Z"/><polygon class="b" points="4.04 28.33 1.33 28.33 6.08 19.91 10.68 28.35 4.04 28.33"/><polygon class="b" points="44.11 20.13 46.82 20.13 42.07 28.54 37.47 20.1 44.11 20.13"/><path class="b" d="M21.21,36.88s.77-1,.99-2.8l-.45,.33s.57-.49,.67-1.57l-.4,.43s.57-1.06,.35-1.72l-.4,.54s.46-.79,.12-1.81l-.39,.67s.4-.96-.15-1.84c0,0-.19,.61-.36,.8,0,0,.34-1.02-.3-1.79l-.32,.76s.17-.97-.6-1.64l-.2,.84s.11-1.1-.76-1.63l-.11,.77s-.07-1.01-.93-1.44v.84s-.12-.84-1.05-1.35v.72s-.07-.71-1.04-1.26l.04,.69s-.17-.63-1.02-1.06v.53s-.24-.71-.96-.96v.45l-1-.69s-.12,.84,.04,1.58l-.43-.31s.02,.91,.5,1.43c0,0-.27-.06-.52-.31,0,0,.03,.83,.59,1.5,0,0-.34-.13-.54-.33,0,0-.08,.9,.67,1.5,0,0-.35-.04-.63-.35,0,0,.04,.82,.74,1.46,0,0-.18,.02-.71-.22,0,0,.25,.92,.96,1.34,0,0-.46,.03-.74-.18,0,0,.16,.83,1.03,1.31,0,0-.26,.12-.76-.15,0,0,.24,.9,1.2,1.24,0,0-.27,.08-.7-.09,0,0,.33,.72,1.37,1.09,0,0-.51-.01-.75-.07,0,0,.29,.69,1.52,.96,0,0-.22,.15-.68,.1,0,0,.22,.51,1.59,.54,0,0-.27,.23-.6,.21,0,0,.7,.54,1.67,.31,0,0-.21,.24-.55,.27,0,0,.93,.29,1.6,.09l-.38,.21s.65,.35,1.78,.31c0,0,.71,1.65,.68,2.64,0,0,.2-2.17-.32-3.84,0,0-2.62-.2-3.56-1.52,0,0,1.31,.98,3.46,1.13l-.36-1.21s-2.57-.3-3.74-2.12c0,0,1.98,1.76,3.63,1.81l-.67-1.39s-2.1-.13-3.12-1.37c0,0,1.72,.98,2.97,1.08l-.82-1.22s-1.42-.14-2.4-1.19c0,0,1.21,.82,2.18,.9l-1.5-1.67,1.81,1.55s.02-.79-.79-1.99c0,0,.79,.43,1,2.22l.76,1.06s.23-1.63-.52-2.96c0,0,1.03,1.11,.72,3.34l.56,.98s.48-2.19-.05-3.44c0,0,.78,1.02,.23,3.65l.45,1.46s.54-1.27,.35-3.13c0,0,.61,.93-.19,3.63l.24,1.34Z"/><path class="b" d="M20.94,40.37l-.75-3.23s3.77-9.15,12.77-12.85c.22-.09,1.03-.36,1.26-.41,.4-.08,.82-.14,.82-.14,.4-.08,1.29-.15,1.46,.47h0c.11,.43-.16,.85-.59,.95,0,0-8.61,2.23-14.99,15.21Z"/></svg>