<?xml version="1.0" encoding="UTF-8"?><svg id="a" xmlns="http://www.w3.org/2000/svg" viewBox="0 0 47.37 47.19"><defs><style>.b{fill:#8b191b;}</style></defs><path class="b" d="M15.07,25.22c.39,11.77,4.72,19.83,8.62,19.83s8.23-8.06,8.62-19.83H15.07Z"/><path class="b" d="M23.69,1.94c-3.9,0-8.23,8.06-8.62,19.83h17.24c-.39-11.77-4.72-19.83-8.62-19.83Z"/><path class="b" d="M35.76,21.77h11.14C46.14,11.5,38.73,3.09,28.96,.82c3.88,3.69,6.51,11.43,6.79,20.94Z"/><path class="b" d="M35.76,25.22c-.29,9.51-2.92,17.26-6.79,20.95,9.77-2.27,17.18-10.68,17.93-20.95h-11.14Z"/><path class="b" d="M11.61,25.22H.48c.75,10.27,8.16,18.68,17.93,20.95-3.87-3.69-6.51-11.43-6.79-20.95Z"/><path class="b" d="M11.61,21.77c.29-9.51,2.92-17.26,6.79-20.94C8.64,3.09,1.23,11.5,.48,21.77H11.61Z"/></svg>