<?xml version="1.0" encoding="UTF-8"?><svg id="a" xmlns="http://www.w3.org/2000/svg" viewBox="0 0 129.97 130.65"><defs><style>.b{fill:#8b191b;}</style></defs><path class="b" d="M45.68,106.13c-.28-.51-.68-.99-.84-1.53-.82-2.86-.88-5.81-.95-8.75-.18-7.56,1.07-14.88,3.84-21.93,1.58-4.04,3.61-7.8,6.82-10.81,2.51-2.34,5.44-3.99,8.64-5.16,3.98-1.46,8.13-2.12,12.31-2.62,4.88-.59,9.8-.94,14.6-2.07,2.67-.63,5.26-1.47,7.71-2.73,.27-.14,.53-.29,.81-.38,.68-.24,1.33,.22,1.34,.94,0,.2-.02,.42-.07,.61-1.18,4.49-2.28,9-3.57,13.45-1.9,6.57-5.14,12.37-10.27,17.02-4.31,3.91-9.37,6.25-15.12,7.12-4.32,.65-8.65,1.24-12.95,1.96-1.51,.25-2.96,.83-4.43,1.26-.29,.08-.56,.21-.85,.29-1.12,.33-1.81-.13-1.9-1.29-.11-1.39,.31-2.69,.87-3.93,2.35-5.19,6.07-9.11,11.15-11.7,1.7-.87,3.44-1.65,5.16-2.47,.15-.07,.32-.11,.43-.22,.12-.13,.17-.32,.26-.48-.18-.06-.37-.2-.53-.16-.69,.17-1.37,.39-2.05,.6-3.25,1.02-6.43,2.21-9.31,4.08-3.83,2.49-6.7,5.76-8.39,10.05-1.63,4.14-2.57,8.4-2.29,12.86,.09,1.53,.41,3.04,.7,4.55,.11,.6,.08,1.08-.42,1.46h-.69Z"/><path class="b" d="M75.18,53.51c-1.24,.18-2.45,.3-3.63,.55-2.54,.53-5.06,1.14-7.59,1.7-.28,.06-.68,.1-.89-.05-2.63-1.84-5.65-2.61-8.74-3.15-.71-.13-1.42-.28-2.15-.36l9.06,4.43c-1.66,.92-3.18,1.69-4.61,2.59-2.6,1.63-4.77,3.75-6.51,6.28-.3,.43-.57,.53-1.08,.39-3.15-.87-5.75-2.65-8-4.95-4.34-4.44-6.99-9.79-8.48-15.77-.69-2.78-1.46-5.55-2.14-8.34-.09-.37-.01-.92,.22-1.17,.18-.18,.79-.12,1.1,.05,4.49,2.36,9.32,3.25,14.32,3.63,4.58,.35,9.18,.8,13.52,2.46,5.79,2.21,10.86,5.47,14.74,10.4,.25,.32,.47,.68,.7,1.02,.05,.07,.08,.16,.15,.3Z"/></svg>