<?xml version="1.0" encoding="UTF-8"?><svg id="a" xmlns="http://www.w3.org/2000/svg" viewBox="0 0 129.97 130.65"><defs><style>.b{fill:#fff;}.c{fill:#8b191b;}</style></defs><rect class="c" x="-.34" y="-.23" width="130.66" height="130.65"/><path class="b" d="M97.88,48.23c-2.24,1.02-4.72,1.65-7.14,2.07,1.15-.2,2.83-2.29,3.5-3.13,1.03-1.29,1.88-2.75,2.36-4.34,.06-.12,.11-.28-.02-.37-.16-.06-.26-.03-.38,.03-2.7,1.46-5.49,2.52-8.46,3.28-.25,.06-.43,0-.59-.15-.25-.28-.48-.54-.74-.75-1.26-1.06-2.6-1.89-4.12-2.5-1.99-.8-4.16-1.14-6.3-.99-2.08,.14-4.12,.74-5.97,1.71-1.85,.97-3.5,2.33-4.8,3.96-1.35,1.69-2.35,3.67-2.85,5.78-.49,2.03-.44,4.04-.13,6.09,.05,.34,.02,.39-.29,.34-11.65-1.69-21.31-5.81-29.18-14.71-.34-.39-.53-.39-.8,.03-3.41,5.15-1.71,13.4,2.59,17.44,.57,.54,1.16,1.08,1.8,1.57-.23,.05-3.08-.25-5.63-1.55-.34-.21-.51-.09-.54,.3-.03,.56,.02,1.07,.1,1.67,.68,5.21,4.3,10.01,9.25,11.87,.59,.24,1.24,.46,1.87,.56-1.12,.25-2.28,.43-5.51,.19-.4-.08-.55,.13-.4,.51,2.45,6.6,7.69,8.55,11.62,9.65,.53,.09,1.05,.09,1.58,.21-.03,.05-.06,.05-.09,.09-1.29,1.99-5.79,3.48-7.89,4.22-3.81,1.35-7.97,1.97-12.01,1.59-.65-.09-.78-.08-.96,0-.18,.11-.02,.26,.19,.43,.82,.54,1.66,1.01,2.51,1.47,2.57,1.35,5.24,2.42,8.04,3.18,14.45,3.93,30.69,.94,41.48-9.87,8.48-8.49,11.41-20.16,11.37-31.83,0-.46,.54-.71,.86-.95,2.21-1.67,3.99-3.67,5.63-5.9,.37-.5,.37-.94,.37-1.13v-.06c0-.19,0-.13-.29,0Z"/></svg>