<?xml version="1.0" encoding="UTF-8"?><svg id="a" xmlns="http://www.w3.org/2000/svg" viewBox="0 0 57.51 58.14"><defs><style>.b{fill:#8b191b;}</style></defs><path class="b" d="M46.18,1.33c.52,.34,.69,.82,.67,1.44-.03,.83,0,1.66,0,2.52H10.95c0-1.05-.05-2.08,.03-3.1,.02-.3,.39-.57,.6-.86H46.18Z"/><path class="b" d="M.94,13.37c.13-.02,.27-.06,.4-.06,2.72,0,5.45,0,8.17,0,.11,0,.23,.02,.38,.03v3.97c-.21,0-.42,0-.63,0-2.29,0-4.59-.01-6.88,0-.61,0-1.09-.15-1.43-.67v-3.27Z"/><path class="b" d="M2.94,19.34H54.82v.65c0,11.92,0,23.84,0,35.76,0,1.15-.3,1.45-1.45,1.45-16.32,0-32.65,0-48.97,0-1.16,0-1.45-.29-1.45-1.45,0-11.92,0-23.84,0-35.76v-.66Zm23.79,16.9c-1.82-1.99-4.25-2.97-7.06-2.98-3.05-.01-5.71-.78-7.66-3.33-.71-.93-2.17-.56-2.51,.56-.06,.2-.1,.42-.13,.63-.43,2.37-.55,4.76-.23,7.15,.57,4.23,2.42,7.72,6,10.19,3.58,2.47,7.9,2.35,10.94-.36,.6-.53,1.09-1.19,1.65-1.8,.05,.06,.14,.14,.21,.23,2.85,3.55,7.62,4.75,11.74,2.8,3.94-1.86,6.61-4.94,8.03-9.05,1.43-4.15,1.36-8.37,.54-12.62-.13-.69-.51-1.17-1.22-1.33-.71-.15-1.25,.14-1.67,.7-.77,1.03-1.72,1.86-2.85,2.46-1.8,.94-3.74,1.28-5.75,1.27-2.76-.02-5.3,.72-7.4,2.53-.98,.85-1.74,1.96-2.6,2.96Z"/><path class="b" d="M33.84,17.27h-9.91v-3.91h9.91v3.91Z"/><path class="b" d="M21.86,17.28H11.96v-3.92h9.9v3.92Z"/><path class="b" d="M35.92,13.34h9.89v3.92h-9.89v-3.92Z"/><path class="b" d="M56.81,13.36c0,1,.02,1.95,0,2.91-.02,.69-.43,1.03-1.21,1.04-1.95,0-3.89,0-5.84,0-.62,0-1.24,0-1.89,0v-3.95h8.95Z"/><path class="b" d="M24.28,7.32c-.66,1.33-1.27,2.56-1.9,3.78-.05,.11-.24,.2-.37,.2-2.82,0-5.63,0-8.45-.02-.01,0-.02-.02-.12-.13,.62-.6,1.24-1.19,1.86-1.79,.68-.66,1.25-1.6,2.07-1.93,.84-.34,1.91-.11,2.88-.11,1.3,0,2.6,0,4.04,0Z"/><path class="b" d="M44.4,11.27c-.32,.02-.49,.04-.65,.04-2.59,0-5.17,0-7.76,.01-.39,0-.59-.12-.75-.47-.55-1.15-1.13-2.29-1.73-3.5,.24-.02,.41-.04,.57-.04,1.94,0,3.89-.02,5.83,.01,.29,0,.64,.14,.85,.34,1.2,1.14,2.36,2.32,3.64,3.59Z"/><path class="b" d="M33.23,11.28h-8.7c.17-.35,.32-.65,.47-.95,.44-.89,.87-1.78,1.34-2.65,.09-.17,.37-.34,.57-.35,1.32-.03,2.65-.02,3.97,0,.15,0,.39,.06,.44,.17,.64,1.23,1.26,2.48,1.91,3.78Z"/><path class="b" d="M53.92,11.31c-.3,0-.61,0-.91,0-1.75,0-3.5,.02-5.25-.02-.29,0-.65-.14-.86-.34-1.08-1.03-2.13-2.11-3.19-3.17-.12-.12-.22-.25-.41-.47,1.45,0,2.79,0,4.12,0,.11,0,.22,.06,.32,.12,2.07,1.24,4.13,2.48,6.19,3.72l-.03,.14Z"/><path class="b" d="M14.44,7.49c-.27,.24-.55,.46-.81,.71-.94,.93-1.86,1.87-2.81,2.8-.15,.15-.39,.29-.59,.29-2.08,.02-4.16,.01-6.24,0-.05,0-.1-.03-.23-.07,.13-.09,.22-.16,.31-.21,1.95-1.17,3.9-2.34,5.85-3.51,.13-.08,.28-.18,.42-.18,1.33-.01,2.66,0,4,0l.11,.17Z"/><path class="b" d="M29.78,45.84c1.39-.46,2.6-.82,3.77-1.26,3.87-1.47,6.95-3.93,9.22-7.4,.39-.59,.34-1.15-.14-1.5-.5-.37-1.09-.26-1.49,.36-2.82,4.39-7,6.66-11.94,7.81-.47,.11-.64-.03-.81-.44-1.59-4.04,.48-8.47,4.69-10.04,1.3-.48,2.64-.62,4.01-.63,2.62-.02,5.1-.59,7.29-2.09,.7-.48,1.32-1.08,2.06-1.68,.08,.59,.18,1.17,.24,1.75,.37,3.48,.13,6.88-1.33,10.12-1.26,2.8-3.26,4.91-5.93,6.4-2.93,1.63-6.48,1.26-8.99-.9-.19-.16-.4-.29-.67-.49Z"/><path class="b" d="M25.05,46.33c-1.21,1.15-2.56,1.75-4.13,1.88-2.52,.2-4.46-1.01-6.19-2.64-2.36-2.22-3.48-5.04-3.7-8.21-.11-1.52,.05-3.07,.09-4.6,0-.18,.06-.37,.11-.65,1.04,1.05,2.16,1.81,3.44,2.3,1.58,.61,3.22,.82,4.92,.84,2.5,.03,4.65,.87,6.16,2.98,.24,.33,.31,.65,.24,1.08-.22,1.44-.08,2.87,.35,4.27,.08,.28,.01,.61,.01,.97-4.12-.9-7.62-2.57-10.07-6.01-.17-.24-.33-.48-.51-.71-.4-.51-.96-.61-1.43-.26-.44,.33-.53,.88-.19,1.4,1.13,1.7,2.47,3.2,4.15,4.38,1.82,1.28,3.83,2.14,5.96,2.75,.24,.07,.47,.14,.79,.23Z"/></svg>