<?xml version="1.0" encoding="UTF-8"?><svg id="a" xmlns="http://www.w3.org/2000/svg" viewBox="0 0 129.97 130.65"><defs><style>.b{fill:#fff;}.c{fill:#8b191b;}</style></defs><rect class="c" x="-.34" y="-.23" width="130.66" height="130.65"/><g><path class="b" d="M63.83,99.67l-.35-.12c-.59-.21-14.48-5.21-22.53-20.96-7.83-15.3-4.58-32.97-4.44-33.71l.17-.9h.92c.14-.01,12.7-.27,26.08-8.92l.62-.4,.62,.41c.12,.08,12.37,8.22,25.03,8.9l.94,.05,.12,.93c.03,.26,.78,6.37,.2,14.35-.54,7.41-2.38,17.85-8.1,25.46-8.74,11.62-18.52,14.67-18.93,14.8l-.35,.11Zm-25.24-53.5c-.54,3.72-2.14,18.66,4.37,31.39,6.94,13.57,18.74,18.84,20.92,19.72,1.78-.65,10.06-4.08,17.43-13.88,9.21-12.25,7.97-32.7,7.56-37.26-11.41-.92-21.93-7.13-24.58-8.81-11.73,7.38-22.49,8.62-25.71,8.83Z"/><path class="b" d="M42.91,49.51s7.37-.26,20.95-7.54c0,0,8.98,5.75,21,7.54v7.65l-1.15,8.72s-.07,6.25-4.6,13.55c-3.96,6.39-9.63,9.73-14.8,13.04,0,0-12.19-5.37-17.04-15.47,0,0-2.3-5.18-2.69-9.75l-1.28-10.1-.38-7.65Z"/><polygon class="c" points="40.11 67.22 36.87 67.22 42.56 57.15 48.06 67.25 40.11 67.22"/><polygon class="c" points="88.04 57.41 91.29 57.41 85.6 67.47 80.1 57.38 88.04 57.41"/><path class="c" d="M60.65,77.45s.92-1.2,1.18-3.35l-.54,.39s.68-.58,.81-1.88l-.48,.52s.68-1.27,.42-2.06l-.47,.65s.55-.95,.15-2.16l-.47,.8s.48-1.15-.18-2.21c0,0-.23,.73-.44,.96,0,0,.41-1.23-.36-2.14l-.39,.91s.2-1.16-.72-1.96l-.24,1s.13-1.31-.91-1.95l-.13,.92s-.08-1.21-1.11-1.72v1.01s-.15-1.01-1.25-1.61l.02,.86s-.1-.84-1.26-1.51l.04,.82s-.21-.76-1.22-1.26v.63s-.28-.85-1.14-1.15l-.02,.54-1.18-.83s-.15,1.01,.05,1.89l-.51-.36s.02,1.09,.6,1.71c0,0-.32-.08-.62-.37,0,0,.04,1,.71,1.79,0,0-.41-.15-.65-.4,0,0-.09,1.08,.8,1.8,0,0-.42-.04-.76-.42,0,0,.04,.98,.89,1.74,0,0-.21,.02-.85-.26,0,0,.3,1.1,1.14,1.6,0,0-.55,.04-.88-.21,0,0,.19,1,1.23,1.56,0,0-.32,.15-.91-.18,0,0,.28,1.07,1.43,1.48,0,0-.32,.09-.83-.11,0,0,.39,.86,1.64,1.31,0,0-.61-.02-.89-.09,0,0,.34,.83,1.81,1.15,0,0-.27,.18-.81,.12,0,0,.26,.6,1.9,.64,0,0-.33,.28-.71,.26,0,0,.83,.65,2,.37,0,0-.26,.29-.66,.33,0,0,1.11,.34,1.91,.11l-.45,.25s.77,.42,2.13,.38c0,0,.85,1.97,.81,3.16,0,0,.24-2.59-.39-4.6,0,0-3.13-.24-4.26-1.82,0,0,1.57,1.17,4.14,1.36l-.43-1.45s-3.08-.36-4.48-2.54c0,0,2.37,2.1,4.34,2.16l-.8-1.66s-2.51-.15-3.73-1.64c0,0,2.06,1.17,3.56,1.29l-.99-1.47s-1.7-.17-2.87-1.42c0,0,1.45,.99,2.61,1.08l-1.8-2,2.17,1.86s.02-.95-.94-2.38c0,0,.95,.51,1.2,2.66l.91,1.26s.27-1.95-.63-3.54c0,0,1.23,1.33,.87,4l.67,1.17s.58-2.62-.06-4.11c0,0,.93,1.22,.28,4.37l.54,1.75s.64-1.52,.41-3.75c0,0,.73,1.11-.23,4.34l.29,1.61Z"/><path class="c" d="M60.33,81.62l-.9-3.87s4.51-10.95,15.28-15.37c.27-.11,1.23-.43,1.51-.49,.48-.09,.99-.16,.99-.16,.48-.09,1.55-.18,1.75,.56h0c.13,.51-.19,1.02-.71,1.13,0,0-10.3,2.67-17.93,18.19Z"/></g></svg>