<?xml version="1.0" encoding="UTF-8"?><svg id="a" xmlns="http://www.w3.org/2000/svg" viewBox="0 0 47.37 58.14"><defs><style>.b{fill:#8b191b;}</style></defs><path class="b" d="M43.17,42.15V7.35c0-3.88-3.15-7.03-7.03-7.03H11.23C7.35,.32,4.2,3.47,4.2,7.35V42.15H43.17ZM23.69,4.7c1.16,0,2.11,.94,2.11,2.11s-.94,2.11-2.11,2.11-2.11-.94-2.11-2.11,.94-2.11,2.11-2.11Z"/><path class="b" d="M4.2,46.37v4.42c0,3.88,3.15,7.03,7.03,7.03h24.92c3.88,0,7.03-3.15,7.03-7.03v-4.42H4.2Zm19.49,7.54c-1.16,0-2.11-.94-2.11-2.11s.94-2.11,2.11-2.11,2.11,.94,2.11,2.11-.94,2.11-2.11,2.11Z"/></svg>