<?xml version="1.0" encoding="UTF-8"?><svg id="a" xmlns="http://www.w3.org/2000/svg" viewBox="0 0 55.12 55"><defs><style>.b{fill:#8b191b;}</style></defs><path class="b" d="M1.12,15.6c.29-.8,.47-1.67,.89-2.4,1.28-2.23,3.27-3.34,5.84-3.37,2.1-.02,4.21-.01,6.31,0,1.43,0,2.4,.91,2.4,2.22,0,1.3-.98,2.21-2.4,2.21-2.07,0-4.14,0-6.21,0-1.52,0-2.41,.88-2.41,2.41,0,10.16,0,20.33,0,30.49,0,1.57,.87,2.43,2.44,2.43,13.1,0,26.19,0,39.29,0,1.57,0,2.44-.87,2.44-2.43,0-5.73,0-11.46,0-17.19,0-1.2,.57-2.05,1.56-2.36,1.43-.44,2.85,.58,2.86,2.1,.02,1.67,0,3.35,0,5.02,0,4.09-.06,8.18,.02,12.27,.07,3.93-2.8,6.59-5.68,6.94-.05,0-.09,.05-.13,.07H6.92c-.08-.03-.15-.08-.23-.09-2.04-.36-3.63-1.42-4.64-3.22-.43-.76-.63-1.66-.93-2.49,0-10.87,0-21.74,0-32.62Z"/><path class="b" d="M36.45,25.36c-8.2-.7-14.98,2.79-18.68,9.57-.12,.23-.23,.46-.38,.67-.41,.58-1.13,.84-1.78,.65-.7-.2-1.21-.74-1.22-1.44-.04-3-.16-6.01,.71-8.94,2.5-8.4,8.04-13.62,16.57-15.6,1.45-.34,2.98-.31,4.47-.46,.08,0,.17-.01,.32-.03,0-.19,0-.38,0-.56,0-2.14,0-4.28,0-6.42,0-1.34,1.16-2.18,2.29-1.68,.24,.11,.47,.29,.66,.48,4.73,4.9,9.46,9.81,14.18,14.72,.73,.76,.73,1.69,0,2.44-4.72,4.91-9.45,9.82-14.18,14.73-.54,.56-1.18,.79-1.92,.49-.74-.3-1.05-.91-1.05-1.69,0-2.1,0-4.21,0-6.31,0-.2,0-.41,0-.64Z"/></svg>