<?xml version="1.0" encoding="UTF-8"?><svg id="a" xmlns="http://www.w3.org/2000/svg" viewBox="0 0 129.97 130.65"><defs><style>.b{fill:#8b191b;}</style></defs><path class="b" d="M72.79,94.8c-1.12-.35-2.31-.57-3.36-1.06-3.99-1.87-6.14-6.49-5.05-10.75,.15-.59,.01-.83-.51-1.09-4.69-2.37-9.36-4.78-14.04-7.17-.16-.08-.32-.16-.52-.26-2.18,2.8-5.02,4.25-8.58,4.02-2.46-.15-4.59-1.15-6.28-2.96-3.65-3.9-3.63-9.64,.05-13.48,3.51-3.66,9.98-4.27,14.22,.38l15.95-9.6c-.18-.79-.4-1.53-.5-2.29-.67-5.26,3-10.12,8.15-10.82,5.41-.73,10.23,2.85,11.03,8.2,.02,.14,.07,.27,.11,.41v1.94c-.04,.17-.09,.34-.12,.52-1.06,7.03-9.19,10.54-15.01,6.48-.7-.49-1.32-1.1-1.99-1.67-5.18,3.12-10.39,6.26-15.6,9.39-.29,.17-.28,.34-.18,.61,.44,1.21,.66,2.47,.55,3.75-.06,.72-.24,1.44-.37,2.19l15.24,7.81c.17-.2,.31-.37,.46-.55,4.66-5.58,13.86-3.99,16.36,2.84,.29,.8,.44,1.65,.66,2.48v1.94c-.04,.17-.09,.34-.12,.52-.59,3.29-2.35,5.74-5.35,7.2-1.01,.49-2.17,.68-3.26,1.01h-1.94Z"/></svg>