<?xml version="1.0" encoding="UTF-8"?><svg id="a" xmlns="http://www.w3.org/2000/svg" viewBox="0 0 129.97 130.65"><defs><style>.b{fill:#8b191b;}</style></defs><path class="b" d="M103.43,87.9c-.43,1.15-.7,2.41-1.33,3.45-1.52,2.52-3.84,3.87-6.8,4.05-.34,.02-.69,.03-1.03,.03-21.04,0-42.08,0-63.12,.01-3.3,0-5.95-1.18-7.76-3.96-2.72-4.17-1.32-9.56,3.09-12.13,5.22-3.03,10.44-6.05,15.67-9.07,5.86-3.39,11.72-6.79,17.6-10.17,.45-.26,.63-.53,.61-1.05-.15-4.09,1.62-7.1,5.16-9.15,2.22-1.29,3.18-3.81,2.48-6.23-.7-2.42-2.87-4-5.41-3.96-2.47,.05-4.58,1.73-5.17,4.16-.11,.46-.13,.94-.18,1.41-.16,1.43-1.21,2.35-2.56,2.26-1.28-.09-2.2-1.17-2.19-2.56,.05-4.5,3.17-8.52,7.54-9.7,4.94-1.33,10.12,1.17,12.13,5.86,2.02,4.73,.31,10.17-4.13,12.79-2.01,1.18-3.05,2.76-2.93,5.12,.03,.52,.18,.79,.62,1.04,10.34,5.97,20.66,11.95,30.99,17.94,.8,.46,1.61,.92,2.4,1.4,2.27,1.35,3.66,3.31,4.18,5.9,.02,.12,.1,.23,.15,.35v2.22Zm-40.71,2.75c10.44,0,20.88,0,31.32,0,.37,0,.74,0,1.11-.02,1.19-.08,2.12-.63,2.8-1.59,1.38-1.95,.71-4.37-1.59-5.7-10.99-6.37-21.99-12.73-32.97-19.11-.5-.29-.86-.28-1.36,0-7.57,4.41-15.15,8.79-22.73,13.18-3.48,2.02-6.97,4.02-10.44,6.05-1.77,1.03-2.5,2.88-1.86,4.66,.58,1.63,1.98,2.52,4,2.52,10.57,0,21.15,0,31.72,0Z"/></svg>