<?xml version="1.0" encoding="UTF-8"?><svg id="a" xmlns="http://www.w3.org/2000/svg" viewBox="0 0 129.97 130.65"><defs><style>.b{fill:#8b191b;}</style></defs><path class="b" d="M63.07,36.47h3.84c1.05,.14,2.1,.24,3.14,.42,5.77,.99,10.88,3.4,15.26,7.29,5.35,4.76,8.7,10.67,9.95,17.74,.2,1.12,.32,2.25,.47,3.38v3.84c-.09,.73-.17,1.47-.27,2.19-.95,6.66-3.68,12.5-8.44,17.26-7.89,7.9-17.43,10.86-28.38,8.67-8.05-1.6-14.41-6-19.04-12.76-4.65-6.79-6.26-14.32-4.91-22.45,1.05-6.37,3.91-11.85,8.44-16.43,4.59-4.64,10.12-7.56,16.56-8.69,1.12-.2,2.25-.32,3.38-.47Zm-1.69,30.75c-.86,.86-1.67,1.66-2.47,2.46-1.73,1.73-3.46,3.44-5.18,5.18-1.4,1.42-.9,3.68,.94,4.28,1.08,.35,1.99,.04,2.79-.76,2.34-2.36,4.7-4.7,7.05-7.05,.15-.15,.31-.3,.49-.47,.17,.16,.32,.29,.46,.43,1.19,1.19,2.38,2.38,3.57,3.57,1.22,1.22,2.43,2.44,3.65,3.65,.79,.77,1.74,.99,2.76,.59,1.01-.39,1.54-1.17,1.62-2.25,.06-.86-.32-1.53-.92-2.13-2.36-2.34-4.7-4.69-7.05-7.04-.15-.15-.29-.31-.48-.51,.23-.21,.42-.36,.59-.53,2.32-2.32,4.65-4.64,6.96-6.96,.92-.92,1.15-2.04,.66-3.06-.78-1.65-2.86-1.97-4.22-.62-2.39,2.37-4.76,4.75-7.13,7.13-.15,.15-.31,.29-.55,.52-.17-.22-.29-.42-.44-.57-2.37-2.38-4.74-4.76-7.13-7.13-1.07-1.06-2.64-1.06-3.66-.05-1.01,1.01-1.01,2.58,.04,3.66,1.17,1.2,2.37,2.38,3.56,3.57,1.34,1.34,2.69,2.68,4.1,4.1Z"/></svg>