<?xml version="1.0" encoding="UTF-8"?><svg id="a" xmlns="http://www.w3.org/2000/svg" viewBox="0 0 129.97 130.65"><defs><style>.b{fill:#8b191b;}</style></defs><path class="b" d="M106.42,73.06c-.74,1.5-1.43,3.03-2.24,4.48-2.68,4.79-5.41,9.56-8.12,14.33-.12,.21-.25,.42-.44,.76-.02-.21-.04-.29-.03-.37,.81-3.57-.09-6.78-1.99-9.83-3.64-5.84-7.23-11.71-10.83-17.56-.06-.1-.1-.22-.18-.38l15.06-9.41c.07,.06,.14,.09,.18,.15,2.17,3.46,4.34,6.92,6.49,10.39,1.05,1.7,1.73,3.55,2.11,5.51v1.93Z"/><path class="b" d="M31.66,76.63c2.85,2.71,6.22,3.64,10.03,3.62,6.74-.04,13.48,.07,20.21,.12,.12,0,.24,.02,.42,.04v17.78c-.15,.02-.31,.08-.48,.08-4.31-.02-8.62,.01-12.93-.09-2.22-.05-4.38-.57-6.18-2-.51-.41-1-.92-1.31-1.48-3.2-5.84-6.35-11.7-9.52-17.55-.09-.17-.17-.34-.25-.51Z"/><path class="b" d="M58.35,56.86l-15.61-8.66c.91-1.64,1.75-3.23,2.65-4.79,1.55-2.7,3.05-5.44,4.74-8.04,1.19-1.83,2.86-3.21,5.1-3.7,.17-.04,.34-.08,.51-.08,6.93,0,13.86,0,20.79,0l.03,.28c-.09,.05-.18,.13-.28,.16-3.42,1.02-5.79,3.27-7.5,6.33-3.37,6.04-6.78,12.07-10.18,18.1-.07,.13-.16,.24-.26,.39Z"/><path class="b" d="M55.71,70.32l-4.67-2.51c-.18,.27-.33,.5-.47,.73-1.83,3-3.68,5.99-5.49,9-.27,.45-.56,.59-1.06,.58-2.58-.06-5.18,0-7.63-.91-2.99-1.11-5.12-3.14-5.96-6.31-.29-1.07-.07-2.12,.43-3.1,1.42-2.75,2.83-5.5,4.29-8.22,.28-.53,.21-.79-.26-1.14-1.18-.86-2.31-1.79-3.46-2.69-.16-.13-.32-.27-.58-.5,.35-.02,.56-.04,.77-.04,5.08-.05,10.16-.09,15.24-.14,.42,0,.72,.04,.95,.48,2.56,4.78,5.14,9.54,7.71,14.31,.05,.09,.08,.18,.2,.47Z"/><path class="b" d="M70.46,55.89l4.41-2.83c-.14-.27-.26-.5-.39-.74-1.72-3.04-3.43-6.08-5.17-9.1-.3-.52-.28-.9,.02-1.4,1.27-2.18,2.49-4.42,4.4-6.13,2.1-1.88,4.6-2.67,7.4-2.42,1.5,.13,2.72,.88,3.57,2.15,1.72,2.57,3.43,5.15,5.11,7.75,.31,.48,.57,.53,1.06,.31,1.53-.69,3.08-1.32,4.79-2.05-.15,.34-.21,.54-.3,.71-2.43,4.48-4.87,8.96-7.29,13.44-.19,.34-.36,.57-.83,.57-5.47-.08-10.95-.13-16.42-.19-.07,0-.13-.03-.34-.08Z"/><path class="b" d="M77.54,75.51l.36,5.29c.3,0,.56,0,.82,0,3.52-.03,7.04-.05,10.55-.11,.51,0,.8,.15,1.06,.59,1.33,2.23,2.75,4.43,3.31,7.01,.61,2.78,.05,5.37-1.59,7.69-1.08,1.52-2.71,1.95-4.49,2.05-2.82,.17-5.63,.41-8.45,.63-.15,.01-.29,.05-.52,.09l-.64,5.85c-.19-.25-.32-.38-.41-.53-2.77-4.34-5.53-8.68-8.3-13.02-.19-.3-.31-.54-.09-.93,2.71-4.72,5.4-9.45,8.09-14.18,.05-.08,.11-.16,.28-.42Z"/></svg>