<?xml version="1.0" encoding="UTF-8"?><svg id="a" xmlns="http://www.w3.org/2000/svg" viewBox="0 0 129.97 130.65"><defs><style>.b{fill:#8b191b;}</style></defs><path class="b" d="M31.62,52.63c.3-.84,.49-1.75,.93-2.51,1.34-2.33,3.43-3.5,6.12-3.53,2.2-.03,4.41-.01,6.61,0,1.5,0,2.52,.96,2.52,2.32,0,1.37-1.03,2.31-2.52,2.31-2.17,0-4.34,0-6.5,0-1.59,0-2.52,.93-2.52,2.53,0,10.64,0,21.28,0,31.92,0,1.64,.91,2.54,2.55,2.55,13.71,0,27.42,0,41.14,0,1.64,0,2.55-.91,2.55-2.54,0-6,0-12,0-17.99,0-1.26,.59-2.15,1.63-2.47,1.5-.46,2.98,.61,3,2.2,.02,1.75,0,3.5,0,5.26,0,4.28-.06,8.56,.02,12.84,.08,4.11-2.94,6.91-5.95,7.26-.05,0-.09,.05-.14,.08H37.7c-.08-.03-.16-.08-.24-.09-2.14-.38-3.8-1.48-4.85-3.37-.45-.8-.66-1.73-.97-2.61,0-11.38,0-22.77,0-34.15Z"/><path class="b" d="M68.62,62.85c-8.58-.73-15.68,2.92-19.56,10.02-.13,.24-.24,.49-.4,.7-.43,.61-1.18,.88-1.86,.68-.73-.21-1.27-.78-1.28-1.5-.05-3.14-.17-6.3,.74-9.36,2.62-8.8,8.42-14.26,17.35-16.33,1.51-.35,3.12-.33,4.68-.48,.09,0,.18-.02,.34-.03,0-.2,0-.4,0-.59,0-2.24-.01-4.48,0-6.72,0-1.4,1.21-2.28,2.4-1.76,.26,.11,.5,.3,.69,.51,4.95,5.13,9.9,10.27,14.85,15.41,.76,.79,.76,1.77,0,2.56-4.94,5.14-9.9,10.28-14.84,15.42-.57,.59-1.23,.83-2.01,.51-.78-.32-1.1-.95-1.1-1.77,0-2.2,0-4.41,0-6.61,0-.21,0-.43,0-.68Z"/></svg>