<?xml version="1.0" encoding="UTF-8"?><svg id="a" xmlns="http://www.w3.org/2000/svg" viewBox="0 0 47.37 58.14"><defs><style>.b{fill:#8b191b;fill-rule:evenodd;}</style></defs><path class="b" d="M19.64,37.52c-.05,.16-.09,.29-.13,.43-2.04,7.99-2.27,9.77-4.36,13.48-1,1.76-2.13,3.44-3.37,5.04-.14,.18-.27,.41-.55,.36-.31-.07-.33-.34-.36-.59-.34-2.43-.52-4.86-.44-7.32,.11-3.19,.5-4.29,4.62-21.6,.06-.26,0-.48-.1-.72-.99-2.66-1.18-5.36-.32-8.09,1.86-5.9,8.56-6.36,9.73-1.49,.72,3.01-1.19,6.96-2.65,12.79-1.21,4.81,4.45,8.23,9.29,4.72,4.46-3.24,6.19-11,5.87-16.5-.65-10.97-12.67-13.34-20.3-9.8-8.75,4.04-10.73,14.88-6.78,19.84,.5,.63,.89,1.02,.72,1.65-.25,.99-.48,1.99-.75,2.98-.2,.73-.82,1-1.56,.7-1.46-.59-2.67-1.52-3.65-2.74-3.35-4.15-4.31-12.37,.12-19.32C9.56,3.64,18.69,.52,27.03,1.46c9.96,1.13,16.26,7.94,17.44,15.66,.54,3.52,.15,12.19-4.79,18.32-5.68,7.05-14.89,7.51-19.14,3.19-.33-.33-.59-.72-.91-1.12Z"/></svg>