<?xml version="1.0" encoding="UTF-8"?><svg id="a" xmlns="http://www.w3.org/2000/svg" viewBox="0 0 129.97 130.65"><defs><style>.b{fill:#8b191b;}</style></defs><path class="b" d="M89.26,65.26c-.5,.05-1,.07-1.5,.08-5.49,0-10.6-2.76-13.61-7.35v25.04c0,10.22-8.29,18.51-18.51,18.51s-18.51-8.29-18.51-18.51,8.29-18.51,18.51-18.51h0c.39,0,.76,.03,1.14,.06v9.12c-.38-.05-.75-.12-1.14-.12-5.22,0-9.45,4.23-9.45,9.45s4.23,9.45,9.45,9.45,9.83-4.11,9.83-9.33l.09-42.53h8.73c.82,7.83,7.13,13.94,14.98,14.51v10.14"/></svg>