<?xml version="1.0" encoding="UTF-8"?><svg id="a" xmlns="http://www.w3.org/2000/svg" viewBox="0 0 47.37 47.72"><defs><style>.b{fill:#8b191b;}</style></defs><path class="b" d="M42.77,45.99H21.48c.09-.07,.18-.15,.27-.22,2.67-2,4.47-4.61,5.37-7.82,.23-.83,.36-1.69,.54-2.56,.16,0,.34,0,.51,0,3.45,0,6.89,0,10.34,0,.45,0,.85-.09,1.16-.43,.38-.42,.48-.91,.24-1.43-.25-.55-.71-.79-1.31-.79-3.49,0-6.98,0-10.47,0h-.53c-.17-1.88-.7-3.61-1.52-5.3,1.9,0,3.72,0,5.55,0,2.31,0,4.62,0,6.94,0,.62,0,1.09-.23,1.35-.8,.41-.91-.27-1.85-1.33-1.85-4.57,0-9.13,0-13.7,.01-.43,0-.69-.15-.97-.45-2.55-2.8-5.71-4.44-9.5-4.78-.87-.08-1.75-.01-2.67-.01v-.5c0-4.7,0-9.39,0-14.09,0-2.53,1.68-4.22,4.2-4.22,6.1,0,12.19,0,18.29,0,.15,0,.31,0,.48,0v.55c0,3.12,0,6.24,0,9.36,0,1.07,.5,1.57,1.56,1.57,3.14,0,6.27,0,9.41,0h.51v.56c0,4.65,0,9.31,0,13.96,0,5.05,0,10.1,0,15.15,0,1.79-1.02,3.27-2.65,3.84-.26,.09-.53,.16-.8,.23Zm-13.79-29.16c-.32,0-.65,0-.97,0-2.9,0-5.8,0-8.7,0-.73,0-1.29,.5-1.36,1.19-.07,.66,.38,1.28,1.05,1.43,.18,.04,.38,.03,.57,.03,5.59,0,11.18,0,16.78,0,.78,0,1.56,0,2.34,0,.59,0,1.02-.29,1.24-.83,.38-.9-.29-1.82-1.32-1.82-3.21,0-6.42,0-9.62,0Z"/><path class="b" d="M1.15,33.09c.21-.94,.34-1.91,.64-2.82,1.68-5.09,6.71-8.47,12.01-8.12,5.5,.37,10.04,4.39,11.02,9.75,1.25,6.83-3.53,13.23-10.47,14.02-.1,.01-.2,.05-.3,.07h-1.94c-.1-.03-.2-.06-.3-.07-5-.71-8.36-3.44-10.06-8.18-.31-.86-.41-1.8-.6-2.7,0-.65,0-1.3,0-1.94Zm10.07,2.91c-.55-.56-1.06-1.08-1.58-1.6-.64-.63-1.44-.68-2-.12-.56,.56-.51,1.36,.12,2,.77,.77,1.54,1.54,2.31,2.31,.81,.81,1.5,.82,2.31,0,1.87-1.87,3.75-3.74,5.62-5.62,.16-.16,.32-.31,.45-.48,.6-.79,.19-1.91-.78-2.11-.52-.11-.94,.1-1.31,.47-1.69,1.7-3.39,3.39-5.14,5.15Z"/><path class="b" d="M45.19,9.56h-7.77V1.79l7.77,7.77Z"/></svg>