<?xml version="1.0" encoding="UTF-8"?><svg id="a" xmlns="http://www.w3.org/2000/svg" viewBox="0 0 47.37 36.19"><defs><style>.b{fill:#8b191b;}</style></defs><path class="b" d="M46.72,30.85c-.24,.65-.4,1.36-.75,1.95-.86,1.43-2.17,2.19-3.85,2.29-.19,.01-.39,.02-.58,.02-11.9,0-23.81,0-35.71,0-1.87,0-3.37-.67-4.39-2.24-1.54-2.36-.75-5.41,1.75-6.86,2.95-1.72,5.91-3.42,8.86-5.13,3.32-1.92,6.63-3.84,9.96-5.76,.25-.15,.35-.3,.34-.6-.08-2.32,.92-4.02,2.92-5.18,1.26-.73,1.8-2.16,1.4-3.52-.4-1.37-1.62-2.26-3.06-2.24-1.39,.03-2.59,.98-2.93,2.35-.06,.26-.07,.53-.1,.8-.09,.81-.68,1.33-1.45,1.28-.73-.05-1.25-.66-1.24-1.45,.03-2.55,1.79-4.82,4.27-5.49,2.8-.75,5.73,.66,6.86,3.31,1.15,2.68,.18,5.75-2.33,7.23-1.13,.67-1.72,1.56-1.66,2.89,.02,.3,.1,.45,.35,.59,5.85,3.38,11.69,6.76,17.53,10.15,.45,.26,.91,.52,1.36,.79,1.28,.76,2.07,1.87,2.36,3.34,.01,.07,.05,.13,.08,.2v1.26Zm-23.03,1.56c5.91,0,11.81,0,17.72,0,.21,0,.42,0,.63-.01,.67-.05,1.2-.35,1.59-.9,.78-1.1,.4-2.47-.9-3.22-6.22-3.6-12.44-7.2-18.65-10.81-.28-.16-.49-.16-.77,0-4.28,2.49-8.57,4.97-12.86,7.46-1.97,1.14-3.94,2.28-5.91,3.42-1,.58-1.41,1.63-1.05,2.64,.33,.92,1.12,1.43,2.26,1.43,5.98,0,11.96,0,17.95,0Z"/></svg>