<?xml version="1.0" encoding="UTF-8"?><svg id="a" xmlns="http://www.w3.org/2000/svg" viewBox="0 0 47.37 45.84"><defs><style>.b{fill:#8b191b;}</style></defs><path class="b" d="M34.49,36.57c2.31,0,4.17,1.88,4.16,4.18-.01,2.29-1.9,4.16-4.2,4.15-2.29,0-4.18-1.91-4.16-4.19,.02-2.31,1.88-4.15,4.19-4.14m1.8,4.17c0-1.01-.79-1.83-1.79-1.85-1.01-.01-1.85,.82-1.85,1.85,0,1.01,.82,1.82,1.82,1.82,1.01,0,1.82-.81,1.82-1.82"/><path class="b" d="M15.69,40.67c.05-2.35,1.93-4.15,4.27-4.1,2.3,.05,4.13,1.97,4.07,4.27-.06,2.31-1.98,4.11-4.33,4.06-2.22-.05-4.06-1.99-4.01-4.23m5.98,.08c.01-1.01-.78-1.84-1.78-1.86-.99-.02-1.84,.8-1.86,1.79-.02,1.03,.79,1.87,1.81,1.88,1,.01,1.82-.8,1.83-1.81"/><path class="b" d="M45.73,8.71c-.36-.1-.76-.13-1.14-.13-11.72,0-23.43,0-35.15,0h-.63c-.24-1.13-.48-2.19-.67-3.27-.18-.98-.7-1.64-1.62-2.03-1.53-.64-3.05-1.32-4.57-1.98-.98-.43-1.4-.3-1.96,.59v.65c.2,.47,.58,.73,1.04,.92,1.49,.63,2.97,1.27,4.44,1.93,.16,.07,.32,.27,.37,.44,.15,.59,.26,1.2,.39,1.8,1.71,8.31,3.43,16.62,5.15,24.93,.3,1.43,1.14,2.14,2.62,2.14,9.08,0,18.16,0,27.24,0,.22,0,.43-.02,.64-.07,.5-.12,.84-.57,.86-1.08,.01-.51-.29-.98-.78-1.13-.25-.07-.52-.09-.77-.09-8.96,0-17.91,0-26.87,0h-.59c-.23-1.11-.44-2.17-.67-3.28h28.17c.19,0,.37,0,.55,0,1.24-.07,2.09-.78,2.33-1.99,1.08-5.22,2.15-10.45,3.22-15.68,.24-1.17-.45-2.35-1.59-2.68Zm-10.03,13.45c-.14,.52-.55,.83-1.18,.84-1.23,.01-2.46,0-3.7,0h-3.65c-2.42,0-4.84,0-7.26,0-.87,0-1.36-.48-1.33-1.24,.03-.55,.46-1.02,1.02-1.08,.08,0,.15,0,.23,0,4.88,0,9.77,0,14.65,0,.88,0,1.44,.69,1.22,1.48Zm-.37-5.19c-2.73,0-5.46,0-8.19,0s-5.49,0-8.23,0c-.62,0-1.08-.34-1.22-.87-.13-.48,.07-1.03,.52-1.28,.22-.12,.5-.18,.75-.18,5.47-.01,10.95-.01,16.42,0,.79,0,1.27,.46,1.27,1.16s-.52,1.16-1.32,1.17Z"/></svg>