<?xml version="1.0" encoding="UTF-8"?><svg id="a" xmlns="http://www.w3.org/2000/svg" viewBox="0 0 129.97 130.65"><defs><style>.b{fill:#8b191b;}</style></defs><path class="b" d="M54.27,70.96c.48,14.63,5.86,24.65,10.71,24.65s10.23-10.02,10.71-24.65h-21.43Z"/><path class="b" d="M64.99,42.02c-4.85,0-10.23,10.02-10.71,24.65h21.43c-.48-14.63-5.86-24.65-10.71-24.65Z"/><path class="b" d="M79.99,66.67h13.84c-.94-12.76-10.14-23.22-22.29-26.03,4.82,4.58,8.09,14.21,8.44,26.03Z"/><path class="b" d="M79.99,70.96c-.35,11.82-3.63,21.45-8.44,26.04,12.14-2.82,21.35-13.27,22.29-26.04h-13.84Z"/><path class="b" d="M49.98,70.96h-13.84c.94,12.76,10.14,23.22,22.29,26.04-4.82-4.58-8.09-14.21-8.44-26.04Z"/><path class="b" d="M49.98,66.67c.35-11.82,3.63-21.45,8.44-26.03-12.14,2.82-21.35,13.27-22.29,26.03h13.84Z"/></svg>