<?xml version="1.0" encoding="UTF-8"?><svg id="a" xmlns="http://www.w3.org/2000/svg" viewBox="0 0 129.97 130.65"><defs><style>.b{fill:#8b191b;fill-rule:evenodd;}</style></defs><path class="b" d="M59.21,80.18c-.05,.17-.1,.32-.14,.46-2.19,8.6-2.44,10.51-4.69,14.5-1.08,1.9-2.29,3.7-3.63,5.42-.15,.19-.29,.45-.6,.38-.33-.07-.36-.37-.39-.63-.36-2.61-.56-5.23-.47-7.87,.11-3.44,.54-4.61,4.97-23.24,.06-.28,0-.52-.1-.78-1.06-2.86-1.27-5.76-.34-8.7,2-6.35,9.21-6.84,10.46-1.6,.78,3.24-1.28,7.48-2.85,13.75-1.3,5.17,4.78,8.85,9.99,5.07,4.8-3.48,6.66-11.83,6.31-17.74-.7-11.79-13.63-14.34-21.84-10.55-9.41,4.35-11.54,16.01-7.3,21.34,.54,.68,.95,1.09,.78,1.78-.27,1.07-.51,2.14-.81,3.2-.22,.79-.88,1.08-1.68,.75-1.57-.63-2.87-1.63-3.93-2.94-3.61-4.47-4.64-13.3,.13-20.78,5.28-8.29,15.11-11.64,24.08-10.62,10.72,1.22,17.49,8.54,18.76,16.85,.58,3.78,.16,13.12-5.15,19.71-6.11,7.58-16.02,8.08-20.59,3.43-.35-.36-.63-.77-.98-1.2Z"/></svg>