<?xml version="1.0" encoding="UTF-8"?><svg id="a" xmlns="http://www.w3.org/2000/svg" viewBox="0 0 47.37 47.63"><defs><style>.b{fill:#8b191b;}</style></defs><path class="b" d="M10.95,46.49c-.18-.33-.44-.64-.54-.99-.53-1.85-.57-3.76-.61-5.66-.11-4.89,.69-9.62,2.48-14.18,1.02-2.61,2.33-5.05,4.41-6.99,1.62-1.52,3.52-2.58,5.59-3.34,2.57-.95,5.26-1.37,7.96-1.7,3.16-.38,6.34-.61,9.44-1.34,1.73-.41,3.4-.95,4.99-1.76,.17-.09,.34-.19,.52-.25,.44-.15,.86,.14,.87,.61,0,.13-.01,.27-.05,.4-.76,2.9-1.48,5.82-2.31,8.7-1.23,4.25-3.33,8-6.64,11.01-2.79,2.53-6.06,4.04-9.78,4.61-2.79,.42-5.59,.8-8.38,1.27-.97,.16-1.91,.54-2.87,.82-.18,.05-.36,.13-.55,.19-.72,.21-1.17-.08-1.23-.84-.07-.9,.2-1.74,.56-2.54,1.52-3.36,3.92-5.89,7.21-7.57,1.1-.56,2.22-1.07,3.34-1.6,.09-.04,.21-.07,.28-.14,.08-.08,.11-.21,.17-.31-.11-.04-.24-.13-.34-.1-.45,.11-.89,.25-1.33,.39-2.1,.66-4.16,1.43-6.02,2.64-2.48,1.61-4.33,3.73-5.43,6.5-1.05,2.68-1.66,5.43-1.48,8.32,.06,.99,.27,1.97,.45,2.95,.07,.39,.05,.7-.27,.95h-.45Z"/><path class="b" d="M30.03,12.46c-.8,.12-1.58,.19-2.35,.35-1.64,.34-3.27,.74-4.91,1.1-.18,.04-.44,.06-.58-.03-1.7-1.19-3.65-1.69-5.65-2.04-.46-.08-.92-.18-1.39-.24l5.86,2.86c-1.07,.6-2.05,1.09-2.98,1.67-1.68,1.06-3.08,2.42-4.21,4.06-.19,.28-.37,.34-.7,.25-2.04-.56-3.72-1.71-5.17-3.2-2.81-2.87-4.52-6.33-5.49-10.2-.45-1.8-.94-3.59-1.39-5.39-.06-.24,0-.6,.14-.75,.11-.12,.51-.07,.71,.03,2.9,1.53,6.03,2.1,9.26,2.35,2.96,.23,5.93,.52,8.74,1.59,3.75,1.43,7.03,3.54,9.53,6.73,.16,.21,.31,.44,.45,.66,.03,.05,.05,.1,.1,.2Z"/></svg>