<?xml version="1.0" encoding="UTF-8"?><svg id="a" xmlns="http://www.w3.org/2000/svg" viewBox="0 0 129.97 130.65"><defs><style>.b{fill:#fff;}.c{fill:#8b191b;}</style></defs><rect class="c" x="-.34" y="0" width="130.66" height="130.65"/><path class="b" d="M63.31,41.02h3.5c.18,.03,.36,.07,.55,.1,1.55,.25,3.14,.39,4.66,.78,14.21,3.64,23.29,16.78,21.63,31.39-.84,7.36-4.08,13.6-9.74,18.37-8.33,7.02-17.88,9.02-28.2,5.49-10.58-3.63-16.88-11.27-19.13-22.23-.22-1.06-.31-2.15-.46-3.22v-3.61c.15-1.06,.26-2.12,.44-3.17,2-11.69,11.17-21.08,22.79-23.33,1.3-.25,2.63-.38,3.95-.57Zm-.7,31.33c-.27-.26-.42-.4-.56-.54-1.6-1.59-3.18-3.2-4.79-4.78-1.01-.99-2.47-.98-3.43-.02-.93,.94-.94,2.42,.02,3.39,3.14,3.16,6.29,6.31,9.45,9.44,1,1,2.42,.99,3.43-.01,3.14-3.13,6.29-6.25,9.39-9.42,.38-.38,.62-1,.71-1.54,.16-.98-.45-1.91-1.33-2.33-.93-.44-1.97-.27-2.75,.49-1.6,1.58-3.19,3.18-4.78,4.79-.14,.14-.21,.36-.31,.54l-.24-.17v-.65c0-6.65,0-13.3,0-19.95,0-.24,0-.49-.01-.73-.11-1.47-1.56-2.49-2.98-2.11-1.15,.31-1.79,1.21-1.79,2.54,0,6.75,0,13.49,0,20.24,0,.22,0,.44,0,.82Zm2.34,16.14c3.16,0,6.31,.01,9.47,0,1.42,0,2.45-1.05,2.45-2.41,0-1.36-1.03-2.38-2.45-2.41-.51-.01-1.01,0-1.52,0-5.71,0-11.43,0-17.14,0-1.12,0-1.98,.44-2.44,1.48-.71,1.61,.49,3.33,2.32,3.34,3.1,.02,6.2,0,9.3,0Z"/></svg>