<?xml version="1.0" encoding="UTF-8"?><svg id="a" xmlns="http://www.w3.org/2000/svg" viewBox="0 0 47.37 48.49"><defs><style>.b{fill:#8b191b;}</style></defs><path class="b" d="M22.35,1.19h2.79c.15,.03,.29,.06,.44,.08,1.24,.2,2.51,.31,3.72,.62,11.35,2.91,18.6,13.4,17.28,25.07-.67,5.88-3.26,10.86-7.78,14.67-6.65,5.61-14.28,7.21-22.52,4.38C7.83,43.12,2.8,37.01,1.01,28.26c-.17-.85-.25-1.72-.37-2.58v-2.88c.12-.84,.21-1.69,.35-2.53C2.6,10.94,9.92,3.44,19.19,1.64c1.04-.2,2.1-.31,3.15-.45Zm-.56,25.02c-.22-.21-.34-.32-.45-.43-1.27-1.27-2.54-2.55-3.82-3.82-.81-.79-1.98-.79-2.74-.01-.74,.75-.75,1.93,.02,2.71,2.51,2.52,5.02,5.04,7.54,7.54,.8,.8,1.94,.79,2.74-.01,2.51-2.5,5.02-4.99,7.5-7.53,.3-.31,.49-.8,.56-1.23,.13-.78-.36-1.53-1.07-1.86-.74-.35-1.58-.22-2.2,.39-1.28,1.27-2.55,2.54-3.82,3.82-.11,.11-.16,.29-.24,.43l-.2-.13v-.52c0-5.31,0-10.62,0-15.93,0-.19,0-.39-.01-.58-.09-1.17-1.25-1.99-2.38-1.68-.92,.25-1.43,.96-1.43,2.03,0,5.39,0,10.77,0,16.16,0,.18,0,.35,0,.66Zm1.87,12.89c2.52,0,5.04,0,7.56,0,1.13,0,1.96-.84,1.96-1.92,0-1.08-.83-1.9-1.96-1.92-.41,0-.81,0-1.22,0-4.56,0-9.12,0-13.69,0-.9,0-1.58,.35-1.95,1.18-.56,1.29,.39,2.66,1.86,2.67,2.48,.01,4.95,0,7.43,0Z"/></svg>