<?xml version="1.0" encoding="UTF-8"?><svg id="a" xmlns="http://www.w3.org/2000/svg" viewBox="0 0 47.37 41.35"><defs><style>.b{fill:#8b191b;}</style></defs><path class="b" d="M47.37,10.83v.09c-.13,.11-.26,.21-.38,.32-2.38,2.38-4.76,4.75-7.14,7.14-.12,.12-.19,.29-.28,.43l-.25,.03-1.75-1.97-.11,.06v23.52H9.8V16.91l-.12-.06-1.8,1.84L0,10.81s.07-.09,.13-.14c2.29-2.29,4.57-4.6,6.88-6.87,1.37-1.35,3.03-2.28,4.92-2.61,1.35-.23,2.76-.15,4.15-.21,.21,0,.42,0,.63,0,.11,4.31,3.68,6.87,6.89,6.92,2.85,.04,6.85-2.19,7.02-6.92,.89,0,1.78,.01,2.67,0,2.82-.05,5.16,1.05,7.15,2.96,1.73,1.67,3.41,3.4,5.12,5.1,.6,.6,1.21,1.19,1.81,1.78Z"/></svg>