<?xml version="1.0" encoding="UTF-8"?><svg id="a" xmlns="http://www.w3.org/2000/svg" viewBox="0 0 47.37 58.14"><defs><style>.b{fill:#8b191b;}</style></defs><path class="b" d="M23.5,15.32c-3.53,0-6.39,2.87-6.39,6.39s2.87,6.39,6.39,6.39,6.39-2.87,6.39-6.39-2.87-6.39-6.39-6.39Z"/><path class="b" d="M23.5,1.28C11.65,1.28,2.04,10.89,2.04,22.74c0,10.1,15.6,28.38,20.2,33.55,.67,.76,1.85,.76,2.52,0,4.6-5.17,20.2-23.45,20.2-33.55C44.95,10.89,35.35,1.28,23.5,1.28Zm0,31.04c-5.85,0-10.61-4.76-10.61-10.61s4.76-10.61,10.61-10.61,10.61,4.76,10.61,10.61-4.76,10.61-10.61,10.61Z"/></svg>