<?xml version="1.0" encoding="UTF-8"?><svg id="a" xmlns="http://www.w3.org/2000/svg" viewBox="0 0 47.37 54.52"><defs><style>.b{fill:#8b191b;}</style></defs><path class="b" d="M46.52,22.24c-.43,.04-.86,.06-1.29,.07-4.74,0-9.16-2.39-11.75-6.35v21.63c0,8.83-7.16,15.99-15.99,15.99S1.5,46.41,1.5,37.58s7.16-15.99,15.99-15.99h0c.33,0,.66,.03,.99,.05v7.88c-.33-.04-.65-.1-.99-.1-4.51,0-8.16,3.65-8.16,8.16s3.65,8.16,8.16,8.16,8.49-3.55,8.49-8.06l.08-36.74h7.54c.71,6.76,6.16,12.04,12.94,12.53v8.76"/></svg>