<?xml version="1.0" encoding="UTF-8"?><svg id="a" xmlns="http://www.w3.org/2000/svg" viewBox="0 0 47.37 58.14"><defs><style>.b{fill:#8b191b;}</style></defs><path class="b" d="M22.86,1.08c.72,0,1.45,0,2.17,0,.15,.04,.31,.09,.46,.12,4.22,.62,7.75,3.74,8.72,7.89,.33,1.41,.27,2.91,.37,4.36,.03,.46,0,.93,0,1.43h.66c2.01,0,4.02,0,6.03,0,1.41,0,2.16,.66,2.3,2.05,.2,2.09,.38,4.18,.57,6.27,.38,4.24,.75,8.47,1.13,12.71,.46,5.17,.93,10.35,1.4,15.52,.08,.93,.21,1.86,.31,2.79v.87c-.41,1.22-1.27,1.65-2.54,1.64-10.21-.03-20.42-.01-30.63-.01-3.58,0-7.17,0-10.75,0-1.34,0-2.23-.95-2.12-2.26,.28-3.26,.58-6.53,.87-9.79,.42-4.63,.85-9.27,1.26-13.9,.41-4.62,.81-9.23,1.23-13.85,.12-1.36,.89-2.05,2.25-2.05,2.05,0,4.09,0,6.14,0,.19,0,.38,0,.61,0,0-1.09-.01-2.1,0-3.11,.06-5.05,3.3-9.15,8.19-10.39,.45-.11,.91-.2,1.36-.3Zm-5.55,17.83c0,.23,0,.43,0,.62,0,.96,.02,1.92,0,2.88-.03,1.17-.89,2.02-1.99,2.03-1.11,0-1.98-.88-2.01-2.06,0-.31,0-.62,0-.92,0-.84,0-1.69,0-2.55h-5.16l-3.03,33.79H42.77c-1.01-11.28-2.02-22.53-3.03-33.77h-5.16c0,1.19,.02,2.32,0,3.46-.03,1.45-1.34,2.39-2.66,1.93-.83-.29-1.33-1.04-1.34-2.03-.01-1.12,0-2.23,0-3.38h-13.28Zm13.17-4.06c0-1.45,.15-2.89-.03-4.29-.38-2.95-3.08-5.32-5.98-5.46-3.29-.16-6.14,1.83-6.93,4.86-.41,1.59-.2,3.2-.21,4.81,0,.03,.04,.05,.07,.08h13.08Z"/></svg>