<?xml version="1.0" encoding="UTF-8"?><svg id="a" xmlns="http://www.w3.org/2000/svg" viewBox="0 0 129.97 130.65"><defs><style>.b{fill:#8b191b;}</style></defs><path class="b" d="M77.21,86.54c2.96,.01,5.36,2.42,5.35,5.37-.01,2.94-2.44,5.34-5.39,5.34-2.94,0-5.37-2.45-5.34-5.39,.03-2.97,2.42-5.33,5.39-5.32m2.31,5.36c0-1.3-1.02-2.36-2.3-2.38-1.3-.02-2.38,1.06-2.37,2.37,0,1.29,1.05,2.34,2.34,2.34,1.29,0,2.33-1.04,2.34-2.34"/><path class="b" d="M53.05,91.8c.07-3.02,2.48-5.33,5.49-5.26,2.95,.06,5.31,2.54,5.23,5.48-.08,2.97-2.55,5.28-5.56,5.22-2.86-.06-5.22-2.56-5.16-5.44m7.69,.11c.01-1.3-1.01-2.36-2.29-2.39-1.27-.03-2.37,1.02-2.39,2.3-.02,1.32,1.02,2.4,2.33,2.42,1.29,.02,2.34-1.03,2.35-2.33"/><path class="b" d="M91.67,50.72c-.47-.13-.97-.17-1.46-.17-15.06,0-30.12,0-45.18,0h-.8c-.3-1.45-.62-2.82-.87-4.2-.23-1.26-.9-2.11-2.08-2.61-1.97-.83-3.92-1.69-5.88-2.54-1.26-.55-1.8-.38-2.52,.76v.83c.26,.61,.74,.93,1.33,1.18,1.91,.81,3.81,1.64,5.71,2.49,.2,.09,.41,.35,.47,.57,.2,.76,.33,1.54,.5,2.32,2.2,10.68,4.41,21.36,6.62,32.04,.38,1.84,1.47,2.75,3.37,2.75,11.67,0,23.34,0,35.01,0,.28,0,.56-.03,.82-.09,.65-.16,1.08-.73,1.1-1.38,.02-.66-.37-1.26-1.01-1.45-.32-.09-.66-.12-1-.12-11.51,0-23.02,0-34.54,0h-.76c-.29-1.43-.57-2.79-.86-4.22h36.21c.24,0,.48,0,.71,0,1.59-.09,2.68-1.01,3-2.55,1.39-6.72,2.77-13.43,4.15-20.15,.31-1.51-.58-3.01-2.05-3.44Zm-12.89,17.29c-.19,.67-.71,1.07-1.52,1.08-1.59,.02-3.17,0-4.75,0h-4.69c-3.11,0-6.22,0-9.33,0-1.12,0-1.75-.61-1.71-1.59,.03-.71,.59-1.31,1.31-1.39,.1-.01,.2,0,.3,0,6.28,0,12.56,0,18.84,0,1.14,0,1.85,.88,1.57,1.91Zm-.47-6.68c-3.51,0-7.01,0-10.52,0s-7.05,0-10.58,0c-.79,0-1.38-.43-1.57-1.11-.17-.62,.09-1.32,.67-1.64,.28-.15,.64-.23,.96-.23,7.04-.01,14.07-.01,21.11,0,1.01,0,1.63,.6,1.63,1.49s-.66,1.5-1.69,1.5Z"/></svg>