<?xml version="1.0" encoding="UTF-8"?><svg id="a" xmlns="http://www.w3.org/2000/svg" viewBox="0 0 57.95 45.79"><defs><style>.b{fill:#8b191b;}</style></defs><path class="b" d="M4.77,1.72L24.53,24.14c1.12,1.27,2.74,2.01,4.44,2.01s3.32-.73,4.44-2.01L52.83,2.11c.16-.18,.35-.32,.55-.43-.82-.36-1.73-.56-2.69-.56H7.25c-.91,0-1.78,.18-2.58,.51,.03,.03,.07,.06,.1,.09Z"/><path class="b" d="M56.37,4.25c-.09,.23-.21,.45-.38,.64l-19.42,22.03c-1.92,2.18-4.69,3.43-7.6,3.43s-5.68-1.25-7.6-3.43L1.61,4.51s-.07-.1-.1-.14c-.61,1.01-.97,2.19-.97,3.46v30.34c0,3.71,3,6.71,6.71,6.71H50.69c3.71,0,6.71-3,6.71-6.71V7.82c0-1.31-.38-2.53-1.03-3.56Z"/></svg>