<?xml version="1.0" encoding="UTF-8"?><svg id="a" xmlns="http://www.w3.org/2000/svg" viewBox="0 0 129.97 130.65"><defs><style>.b{fill:#8b191b;}</style></defs><path class="b" d="M62.31,37.46c1.19,0,2.37,0,3.56,0,.15,.03,.3,.08,.46,.1,5.83,.46,10.99,2.57,15.52,6.26,.12,.1,.28,.14,.3,.16l-14.97,14.98c-.09-.12-.21-.31-.36-.47-1.63-1.64-3.26-3.29-4.91-4.9-1.89-1.84-4.17-2.56-6.75-2.05-2.94,.58-4.95,2.36-5.83,5.22-.87,2.86-.23,5.46,1.88,7.6,3.55,3.61,7.15,7.17,10.74,10.74,.44,.44,.95,.84,1.49,1.16,3.04,1.83,6.76,1.34,9.35-1.24,5.83-5.81,11.64-11.63,17.45-17.45,.15-.15,.24-.36,.42-.64,.14,.33,.2,.43,.22,.54,.36,2,.9,3.98,1.04,6,.45,6.71-1.34,12.82-5.28,18.29-6.36,8.82-17.9,13.31-28.39,10.74-11.54-2.82-18.66-10.17-21.39-21.74-.28-1.19-.37-2.41-.55-3.62,0-1.23,0-2.45,0-3.68,.03-.15,.09-.3,.1-.46,.44-5.27,2.22-10.05,5.39-14.27,4.39-5.84,10.2-9.46,17.4-10.8,1.02-.19,2.06-.31,3.09-.46Z"/><path class="b" d="M67.4,66.24c.17-.23,.28-.42,.43-.57,8.23-8.24,16.47-16.47,24.7-24.71,.69-.69,1.45-1.09,2.44-.91,1.95,.35,2.76,2.61,1.49,4.13-.14,.17-.3,.32-.45,.47-8.85,8.85-17.7,17.7-26.56,26.55-1.46,1.46-2.78,1.46-4.25,0-3.43-3.43-6.85-6.85-10.28-10.28-.99-.99-1.17-2.23-.49-3.28,.9-1.41,2.75-1.59,3.99-.37,1.94,1.92,3.86,3.86,5.79,5.79,1.03,1.03,2.06,2.07,3.19,3.2Z"/></svg>