<?xml version="1.0" encoding="UTF-8"?><svg id="a" xmlns="http://www.w3.org/2000/svg" viewBox="0 0 129.97 130.65"><defs><style>.b{fill:#fff;}.c{fill:#8b191b;}</style></defs><rect class="c" x="1.24" width="130.66" height="130.65"/><path class="b" d="M98.62,60.13v.13c-.17,.15-.36,.28-.51,.44-3.22,3.22-6.45,6.43-9.66,9.66-.16,.16-.25,.39-.38,.58l-.33,.05-2.37-2.66-.15,.08v31.82H47.78v-31.85l-.17-.08-2.44,2.49-10.65-10.66s.1-.12,.17-.19c3.1-3.1,6.19-6.22,9.31-9.3,1.86-1.83,4.1-3.09,6.65-3.53,1.83-.31,3.74-.21,5.61-.28,.28-.01,.57,0,.85,0,.15,5.83,4.98,9.3,9.33,9.36,3.85,.05,9.27-2.96,9.51-9.36,1.2,0,2.41,.02,3.62,0,3.81-.07,6.99,1.42,9.68,4.01,2.35,2.26,4.62,4.6,6.92,6.9,.81,.81,1.64,1.61,2.45,2.41Z"/></svg>