<?xml version="1.0" encoding="UTF-8"?><svg id="a" xmlns="http://www.w3.org/2000/svg" viewBox="0 0 129.97 130.65"><defs><style>.b{fill:#8b191b;}</style></defs><path class="b" d="M45.32,49.31l19.76,22.42c1.12,1.27,2.74,2.01,4.44,2.01s3.32-.73,4.44-2.01l19.42-22.03c.16-.18,.35-.32,.55-.43-.82-.36-1.73-.56-2.69-.56H47.8c-.91,0-1.78,.18-2.58,.51,.03,.03,.07,.06,.1,.09Z"/><path class="b" d="M96.92,51.85c-.09,.23-.21,.45-.38,.64l-19.42,22.03c-1.92,2.18-4.69,3.43-7.6,3.43s-5.68-1.25-7.6-3.43l-19.76-22.42s-.07-.1-.1-.14c-.61,1.01-.97,2.19-.97,3.46v30.34c0,3.71,3,6.71,6.71,6.71h43.44c3.71,0,6.71-3,6.71-6.71v-30.34c0-1.31-.38-2.53-1.03-3.56Z"/></svg>