<?xml version="1.0" encoding="UTF-8"?><svg id="a" xmlns="http://www.w3.org/2000/svg" viewBox="0 0 59.19 58.14"><defs><style>.b{fill:#8b191b;}</style></defs><path class="b" d="M27.69,.41h3.58c.98,.13,1.96,.22,2.93,.39,5.38,.92,10.15,3.17,14.23,6.8,4.99,4.44,8.11,9.95,9.28,16.54,.19,1.04,.3,2.1,.44,3.15v3.58c-.08,.68-.16,1.37-.25,2.05-.89,6.21-3.43,11.65-7.87,16.09-7.36,7.36-16.25,10.12-26.46,8.09-7.5-1.49-13.44-5.59-17.75-11.9C1.48,38.86-.02,31.83,1.24,24.26c.98-5.93,3.65-11.04,7.87-15.31C13.39,4.62,18.54,1.9,24.54,.85c1.04-.18,2.1-.3,3.15-.44Zm-1.58,28.67c-.8,.8-1.56,1.54-2.31,2.29-1.61,1.61-3.23,3.21-4.82,4.83-1.3,1.33-.84,3.43,.87,3.99,1,.33,1.86,.03,2.6-.71,2.18-2.2,4.38-4.38,6.57-6.57,.14-.14,.29-.28,.46-.43,.16,.15,.3,.27,.43,.4,1.11,1.11,2.22,2.22,3.32,3.32,1.13,1.13,2.26,2.28,3.41,3.4,.73,.72,1.62,.92,2.58,.55,.94-.36,1.44-1.09,1.51-2.1,.05-.8-.3-1.43-.86-1.98-2.2-2.18-4.38-4.38-6.57-6.57-.14-.14-.27-.29-.44-.48,.22-.19,.39-.33,.55-.49,2.17-2.16,4.33-4.32,6.49-6.49,.85-.86,1.07-1.9,.62-2.85-.73-1.54-2.67-1.84-3.93-.58-2.23,2.21-4.43,4.43-6.65,6.65-.14,.14-.29,.27-.52,.48-.16-.21-.27-.39-.41-.53-2.21-2.22-4.42-4.44-6.65-6.65-1-.99-2.46-.98-3.41-.04-.94,.94-.94,2.41,.04,3.41,1.09,1.12,2.21,2.22,3.32,3.33,1.25,1.25,2.51,2.5,3.82,3.82Z"/></svg>