<?xml version="1.0" encoding="UTF-8"?><svg id="a" xmlns="http://www.w3.org/2000/svg" viewBox="0 0 129.97 130.65"><defs><style>.b{fill:#fff;}.c{fill:#8b191b;}</style></defs><rect class="c" x="-.34" y="-.22" width="130.66" height="130.65"/><path class="b" d="M63.58,36.58c.8,0,1.59,0,2.39,0,.17,.04,.34,.1,.51,.13,4.64,.69,8.53,4.11,9.59,8.69,.36,1.55,.3,3.2,.41,4.8,.04,.51,0,1.02,0,1.57h.73c2.21,0,4.42,0,6.63,0,1.55,0,2.38,.72,2.53,2.26,.23,2.3,.42,4.6,.62,6.9,.41,4.66,.82,9.33,1.24,13.99,.51,5.69,1.02,11.39,1.54,17.08,.09,1.03,.23,2.05,.34,3.07v.96c-.45,1.34-1.4,1.81-2.79,1.81-11.24-.03-22.47-.02-33.71-.02-3.94,0-7.89,0-11.83,0-1.47,0-2.46-1.05-2.33-2.49,.31-3.59,.64-7.18,.96-10.77,.46-5.1,.93-10.2,1.39-15.3,.46-5.08,.9-10.16,1.36-15.24,.14-1.49,.98-2.25,2.48-2.25,2.25,0,4.5,0,6.75,0,.21,0,.42,0,.67,0,0-1.19-.01-2.31,0-3.42,.07-5.56,3.63-10.07,9.01-11.43,.5-.13,1-.22,1.5-.33Zm-6.11,19.62c0,.25,0,.47,0,.68,0,1.06,.02,2.11,0,3.17-.04,1.28-.98,2.23-2.19,2.23-1.23,0-2.17-.96-2.21-2.27,0-.34,0-.68,0-1.02,0-.93,0-1.86,0-2.8h-5.68l-3.33,37.18h41.45c-1.11-12.42-2.22-24.79-3.33-37.16h-5.67c0,1.3,.02,2.56,0,3.81-.03,1.6-1.47,2.63-2.93,2.12-.91-.32-1.46-1.14-1.47-2.24-.01-1.23,0-2.46,0-3.72h-14.61Zm14.5-4.46c0-1.59,.17-3.18-.03-4.72-.42-3.24-3.39-5.86-6.58-6.01-3.62-.18-6.75,2.01-7.62,5.35-.46,1.75-.22,3.53-.23,5.29,0,.03,.05,.06,.07,.09h14.4Z"/></svg>