<?xml version="1.0" encoding="UTF-8"?><svg id="a" xmlns="http://www.w3.org/2000/svg" viewBox="0 0 47.37 50.33"><defs><style>.b{fill:#8b191b;}</style></defs><path class="b" d="M21.64,49.55c-.85-.23-1.26-.83-1.41-1.64-.09-.49-.23-.85-.81-1.04-.78-.26-1.21-.93-1.28-1.77-.04-.56-.04-1.13-.02-1.7,.04-.77,.57-1.3,1.34-1.3,2.77-.01,5.53-.01,8.3,0,.79,0,1.32,.55,1.35,1.34,.02,.53,.02,1.07-.01,1.6-.05,.91-.65,1.69-1.52,1.95-.29,.09-.41,.24-.46,.5-.03,.17-.09,.33-.13,.5-.17,.78-.59,1.34-1.39,1.56h-3.96Z"/><path class="b" d="M.41,24.26c.4-.99,.69-1.18,1.77-1.19,1.38,0,2.76,0,4.14,0,.94,0,1.55,.61,1.49,1.43-.05,.69-.58,1.23-1.3,1.24-1.58,.02-3.17,.02-4.75,0-.77-.01-1.16-.52-1.35-1.21v-.28Z"/><path class="b" d="M23.6,40.28c-1.13,0-2.26,0-3.4,0-1.33,0-2.01-.57-2.26-1.86-.4-2.14-1.3-4.03-2.8-5.62-1.59-1.69-2.66-3.63-3.17-5.9-1.27-5.58,1.96-11.58,7.32-13.57,5.28-1.96,10.85-.25,14.12,4.34,3.06,4.31,2.74,10.59-.81,14.51-1.47,1.62-2.68,3.37-3.17,5.53-.06,.26-.11,.52-.16,.78-.23,1.16-.95,1.77-2.14,1.78-1.18,.01-2.36,0-3.54,0ZM15.03,24.12c0,.09,0,.19,0,.28,0,.77,.53,1.35,1.25,1.39,.75,.04,1.31-.44,1.41-1.22,.02-.17,.03-.34,.05-.52,.16-2.02,1.13-3.56,2.83-4.64,.96-.61,2.02-.81,3.14-.88,.81-.05,1.29-.66,1.23-1.43-.05-.71-.64-1.23-1.41-1.23-4.5,0-8.33,3.72-8.5,8.25Z"/><path class="b" d="M43.09,25.76c-.74,0-1.48,0-2.21,0-.86-.01-1.45-.57-1.45-1.34,0-.75,.57-1.32,1.4-1.34,1.52-.02,3.05-.02,4.57,0,.83,.01,1.41,.59,1.41,1.34,0,.77-.61,1.33-1.46,1.34-.75,0-1.51,0-2.26,0Z"/><path class="b" d="M8.36,41.22c-.72-.04-1.12-.27-1.37-.75-.24-.46-.2-.91,.08-1.34,.1-.16,.24-.29,.37-.42,1.01-1.01,2.02-2.03,3.03-3.03,.62-.61,1.42-.64,1.97-.09,.56,.56,.54,1.35-.07,1.97-1.06,1.07-2.12,2.15-3.21,3.19-.26,.24-.63,.37-.8,.46Z"/><path class="b" d="M39.05,7.56c.57,.1,.97,.35,1.21,.82,.25,.5,.23,1.01-.15,1.41-1.16,1.2-2.33,2.38-3.53,3.53-.5,.48-1.32,.39-1.8-.09-.49-.5-.55-1.27-.05-1.79,1.13-1.18,2.29-2.33,3.47-3.47,.22-.21,.57-.28,.86-.42Z"/><path class="b" d="M38.87,41.22c-.17-.09-.53-.2-.78-.44-1.11-1.07-2.2-2.16-3.27-3.26-.58-.6-.58-1.39-.03-1.93,.53-.52,1.33-.53,1.9,.03,1.11,1.09,2.21,2.19,3.29,3.3,.42,.43,.53,.95,.27,1.52-.24,.5-.66,.74-1.39,.78Z"/><path class="b" d="M11.45,13.71c-.31-.17-.67-.28-.91-.51-1.11-1.07-2.2-2.16-3.28-3.26-.58-.59-.57-1.39-.02-1.93,.53-.52,1.34-.52,1.9,.04,1.11,1.09,2.21,2.19,3.3,3.3,.41,.42,.51,.93,.29,1.48-.2,.49-.69,.8-1.28,.88Z"/><path class="b" d="M24.95,4.92c0,.77,0,1.54,0,2.31-.01,.83-.57,1.39-1.35,1.38-.75,0-1.31-.57-1.31-1.37-.01-1.54-.01-3.08,0-4.62,0-.82,.58-1.4,1.34-1.39,.74,0,1.3,.58,1.32,1.37,.01,.77,0,1.54,0,2.31Z"/></svg>