<?xml version="1.0" encoding="UTF-8"?><svg id="a" xmlns="http://www.w3.org/2000/svg" viewBox="0 0 56.86 47.32"><defs><style>.b{fill:#8b191b;}</style></defs><path class="b" d="M55.91,6.15c-1.76,.8-3.71,1.3-5.61,1.62,.9-.16,2.22-1.8,2.75-2.46,.81-1.01,1.48-2.16,1.85-3.41,.05-.1,.08-.22-.01-.29-.12-.05-.2-.02-.3,.03-2.12,1.15-4.31,1.98-6.65,2.57-.19,.05-.34,0-.46-.12-.19-.22-.38-.42-.58-.59-.99-.83-2.04-1.48-3.23-1.96-1.56-.63-3.27-.89-4.95-.78-1.63,.11-3.24,.58-4.69,1.34-1.45,.77-2.74,1.83-3.77,3.11-1.06,1.32-1.84,2.88-2.24,4.54-.38,1.59-.35,3.17-.1,4.78,.04,.27,.01,.3-.23,.27C18.54,13.47,10.95,10.23,4.77,3.24c-.27-.3-.41-.3-.63,.03-2.68,4.05-1.34,10.52,2.03,13.7,.45,.42,.91,.85,1.41,1.23-.18,.04-2.42-.2-4.42-1.22-.27-.17-.4-.07-.42,.23-.02,.44,.02,.84,.08,1.31,.53,4.09,3.38,7.86,7.27,9.32,.46,.19,.97,.36,1.47,.44-.88,.2-1.79,.34-4.33,.15-.32-.06-.44,.1-.31,.4,1.93,5.18,6.04,6.71,9.12,7.58,.41,.07,.82,.07,1.24,.16-.03,.04-.05,.04-.07,.07-1.01,1.56-4.55,2.73-6.2,3.32-2.99,1.06-6.26,1.54-9.43,1.24-.51-.07-.61-.07-.75,0-.14,.09-.02,.21,.15,.34,.65,.42,1.3,.8,1.97,1.16,2.02,1.06,4.12,1.9,6.32,2.5,11.34,3.08,24.1,.73,32.58-7.75,6.66-6.66,8.96-15.83,8.93-25,0-.36,.42-.56,.67-.75,1.73-1.31,3.13-2.88,4.42-4.63,.29-.39,.29-.74,.29-.88v-.05c0-.15,0-.1-.23,0Z"/></svg>