<?xml version="1.0" encoding="UTF-8"?><svg id="a" xmlns="http://www.w3.org/2000/svg" viewBox="0 0 129.97 130.65"><defs><style>.b{fill:#8b191b;}</style></defs><path class="b" d="M88.05,98.69h-26.47c.11-.09,.22-.19,.34-.27,3.32-2.49,5.56-5.73,6.67-9.72,.29-1.03,.44-2.1,.67-3.18,.2,0,.42,0,.64,0,4.28,0,8.56,0,12.85,0,.56,0,1.06-.11,1.44-.54,.47-.52,.6-1.13,.3-1.78-.32-.68-.88-.98-1.63-.98-4.34,0-8.67,0-13.01,0h-.66c-.21-2.34-.87-4.49-1.88-6.59,2.36,0,4.63,0,6.89,0,2.87,0,5.75,0,8.62,0,.77,0,1.36-.29,1.68-1,.51-1.13-.33-2.3-1.65-2.3-5.67,0-11.35-.01-17.02,.01-.54,0-.86-.18-1.2-.56-3.17-3.48-7.1-5.52-11.81-5.94-1.08-.1-2.18-.01-3.32-.01v-.62c0-5.84,0-11.67,0-17.51,0-3.14,2.09-5.24,5.22-5.24,7.58,0,15.15,0,22.73,0,.19,0,.38,0,.6,0v.68c0,3.88,0,7.76,0,11.64,0,1.32,.63,1.95,1.94,1.95,3.9,0,7.8,0,11.69,0h.64v.7c0,5.78,0,11.56,0,17.35,0,6.28,0,12.55,0,18.83,0,2.23-1.27,4.06-3.29,4.78-.32,.12-.66,.2-.99,.29Zm-17.14-36.23c-.4,0-.8,0-1.21,0-3.6,0-7.21,0-10.81,0-.91,0-1.6,.62-1.7,1.47-.09,.82,.47,1.6,1.3,1.78,.23,.05,.47,.04,.71,.04,6.95,0,13.9,0,20.85,0,.97,0,1.94,0,2.91,0,.73,0,1.26-.36,1.55-1.03,.47-1.12-.36-2.26-1.64-2.26-3.99,0-7.97,0-11.96,0Z"/><path class="b" d="M36.33,82.66c.26-1.17,.42-2.38,.79-3.51,2.08-6.33,8.34-10.53,14.92-10.09,6.84,.46,12.48,5.45,13.69,12.11,1.55,8.49-4.38,16.44-13.01,17.42-.12,.01-.25,.06-.37,.09h-2.42c-.12-.03-.24-.07-.37-.09-6.21-.88-10.39-4.28-12.5-10.17-.38-1.07-.5-2.23-.75-3.35,0-.81,0-1.61,0-2.42Zm12.51,3.61c-.69-.69-1.32-1.35-1.97-1.99-.79-.79-1.79-.84-2.48-.15-.69,.69-.64,1.69,.15,2.48,.95,.96,1.91,1.91,2.87,2.87,1.01,1.01,1.86,1.02,2.87,0,2.33-2.33,4.66-4.65,6.98-6.98,.19-.19,.4-.38,.56-.6,.75-.99,.23-2.37-.97-2.62-.65-.13-1.17,.13-1.63,.58-2.1,2.11-4.21,4.22-6.39,6.4Z"/><path class="b" d="M91.06,53.43h-9.66v-9.66l9.66,9.66Z"/></svg>