<?xml version="1.0" encoding="UTF-8"?><svg id="a" xmlns="http://www.w3.org/2000/svg" viewBox="0 0 129.97 130.65"><defs><style>.b{fill:#8b191b;}</style></defs><g><path class="b" d="M95.45,64.55c-.99-.19-1.51-.68-1.72-1.68-.54-2.54-1.47-4.93-2.8-7.17-1.27-2.14-1.3-1.88,.09-3.98,.83-1.25,1.64-2.51,2.4-3.68-1.42-1.42-2.79-2.78-4.19-4.18-1.44,.94-2.97,1.88-4.43,2.92-.86,.61-1.59,.6-2.46,.04-2.45-1.59-5.12-2.67-7.97-3.28-.98-.21-1.45-.73-1.63-1.69-.33-1.69-.73-3.36-1.09-5.03h-5.9c-.37,1.69-.77,3.35-1.09,5.02-.18,.95-.63,1.52-1.62,1.7-.77,.14-1.52,.37-2.27,.61-2.11,.66-4.09,1.61-5.94,2.8-.72,.46-1.36,.44-2.05-.05-.66-.47-1.35-.89-2.02-1.33-.9-.59-1.79-1.17-2.59-1.7-1.43,1.43-2.78,2.79-4.18,4.2,.9,1.38,1.79,2.86,2.8,4.26,.69,.95,.74,1.75,.08,2.75-1.58,2.4-2.61,5.05-3.21,7.85-.21,.98-.74,1.44-1.69,1.63-1.69,.33-3.36,.73-5.02,1.09v5.9c1.83,.41,3.61,.82,5.41,1.2,.7,.15,1.12,.54,1.27,1.22,.68,3.05,1.87,5.88,3.55,8.51,.39,.61,.37,1.21-.03,1.82-.95,1.44-1.89,2.89-2.84,4.34-.13,.2-.25,.41-.29,.48,1.43,1.43,2.79,2.79,4.19,4.19,1.56-1.02,3.2-2.07,4.82-3.15,.63-.42,1.23-.47,1.88-.06,2.58,1.64,5.37,2.77,8.35,3.43,.74,.16,1.14,.61,1.29,1.35,.39,1.84,.82,3.66,1.23,5.49h5.9c.38-1.74,.79-3.44,1.11-5.15,.19-1.04,.72-1.6,1.76-1.81,2.7-.56,5.23-1.58,7.55-3.08,.97-.62,1.76-.6,2.7,.07,1.47,1.05,3.03,1.99,4.48,2.94,1.41-1.41,2.77-2.77,4.18-4.18-.99-1.52-2-3.12-3.06-4.67-.51-.74-.54-1.41-.06-2.17,1.59-2.47,2.74-5.14,3.36-8.01,.22-1,.77-1.47,1.75-1.66,1.69-.32,3.36-.72,5.05-1.09v-5.9c-1.7-.37-3.35-.77-5.02-1.09Zm-26.72,22.86c-10.4,0-18.84-8.42-18.84-18.82s8.44-18.83,18.84-18.82c10.36,0,18.77,8.42,18.79,18.77,.02,10.4-8.4,18.85-18.79,18.87Z"/><path class="b" d="M68.75,53.53c-8.2-.05-15.02,6.72-15.1,14.99-.08,8.22,6.79,15.13,15.05,15.12,8.23,0,15.03-6.8,15.05-15.03,.02-8.21-6.76-15.03-15.01-15.08Z"/></g><path class="b" d="M66.64,70.07c1.87-1.88,3.63-3.64,5.39-5.4,.2-.2,.42-.41,.66-.57,.56-.37,1.2-.3,1.66,.14,.48,.47,.55,1.13,.15,1.71-.14,.2-.31,.39-.48,.56-2.01,2.02-4.03,4.03-6.05,6.05-.98,.98-1.6,.99-2.57,.02-.76-.76-1.54-1.51-2.28-2.29-.75-.8-.61-1.81,.28-2.26,.64-.32,1.18-.1,1.65,.35,.52,.52,1.02,1.07,1.59,1.67"/></svg>