<?xml version="1.0" encoding="UTF-8"?><svg id="a" xmlns="http://www.w3.org/2000/svg" viewBox="0 0 129.97 130.65"><defs><style>.b{fill:#8b191b;}</style></defs><path class="b" d="M85.74,83.67V48.86c0-3.88-3.15-7.03-7.03-7.03h-24.92c-3.88,0-7.03,3.15-7.03,7.03v34.81h38.97Zm-19.49-37.46c1.16,0,2.11,.94,2.11,2.11s-.94,2.11-2.11,2.11-2.11-.94-2.11-2.11,.94-2.11,2.11-2.11Z"/><path class="b" d="M46.77,87.88v4.42c0,3.88,3.15,7.03,7.03,7.03h24.92c3.88,0,7.03-3.15,7.03-7.03v-4.42H46.77Zm19.49,7.54c-1.16,0-2.11-.94-2.11-2.11s.94-2.11,2.11-2.11,2.11,.94,2.11,2.11-.94,2.11-2.11,2.11Z"/></svg>