<?xml version="1.0" encoding="UTF-8"?><svg id="a" xmlns="http://www.w3.org/2000/svg" viewBox="0 0 55.14 53.38"><defs><style>.b{fill:#8b191b;}</style></defs><path class="b" d="M54.4,30.68c-.53,1.06-1.01,2.14-1.59,3.17-1.9,3.39-3.83,6.76-5.75,10.14-.09,.15-.17,.3-.31,.54-.01-.15-.03-.21-.02-.26,.57-2.53-.07-4.8-1.41-6.96-2.58-4.13-5.11-8.28-7.67-12.43-.04-.07-.07-.15-.12-.27l10.66-6.66c.05,.04,.1,.06,.13,.1,1.53,2.45,3.07,4.89,4.59,7.35,.74,1.2,1.22,2.51,1.49,3.9v1.37Z"/><path class="b" d="M1.49,33.2c2.02,1.92,4.4,2.58,7.1,2.56,4.77-.03,9.54,.05,14.31,.08,.09,0,.17,.01,.3,.03v12.59c-.11,.02-.22,.05-.34,.05-3.05-.01-6.1,0-9.15-.06-1.57-.04-3.1-.4-4.37-1.42-.36-.29-.71-.65-.93-1.05-2.26-4.13-4.5-8.28-6.74-12.42-.06-.12-.12-.24-.18-.36Z"/><path class="b" d="M20.38,19.21l-11.05-6.13c.64-1.16,1.24-2.28,1.88-3.39,1.1-1.91,2.16-3.85,3.36-5.69,.84-1.3,2.03-2.27,3.61-2.62,.12-.03,.24-.06,.36-.06,4.9,0,9.81,0,14.71,0l.02,.2c-.07,.04-.13,.09-.2,.11-2.42,.72-4.1,2.31-5.31,4.48-2.39,4.28-4.8,8.54-7.2,12.81-.05,.09-.11,.17-.19,.28Z"/><path class="b" d="M18.51,28.74l-3.31-1.78c-.13,.19-.23,.35-.33,.51-1.3,2.12-2.6,4.24-3.88,6.37-.19,.32-.4,.42-.75,.41-1.82-.04-3.67,0-5.4-.64-2.12-.78-3.62-2.22-4.22-4.47-.2-.76-.05-1.5,.31-2.19,1-1.95,2.01-3.89,3.04-5.82,.2-.38,.15-.56-.19-.81-.83-.61-1.64-1.26-2.45-1.9-.12-.09-.22-.19-.41-.36,.25-.01,.4-.03,.55-.03,3.59-.03,7.19-.06,10.78-.1,.3,0,.51,.03,.68,.34,1.81,3.38,3.64,6.75,5.46,10.13,.03,.06,.06,.13,.14,.33Z"/><path class="b" d="M28.95,18.53l3.12-2c-.1-.19-.19-.36-.28-.52-1.22-2.15-2.42-4.3-3.66-6.44-.21-.37-.2-.63,.01-.99,.9-1.54,1.76-3.12,3.11-4.34,1.48-1.33,3.26-1.89,5.24-1.71,1.06,.09,1.93,.62,2.53,1.52,1.22,1.82,2.43,3.64,3.62,5.48,.22,.34,.4,.37,.75,.22,1.08-.48,2.18-.93,3.39-1.45-.1,.24-.15,.38-.22,.5-1.72,3.17-3.44,6.34-5.16,9.51-.13,.24-.25,.41-.59,.4-3.87-.06-7.75-.09-11.62-.13-.05,0-.09-.02-.24-.05Z"/><path class="b" d="M33.96,32.41l.25,3.74c.21,0,.4,0,.58,0,2.49-.02,4.98-.04,7.47-.08,.36,0,.57,.11,.75,.42,.94,1.58,1.94,3.13,2.34,4.96,.43,1.97,.04,3.8-1.12,5.44-.76,1.08-1.92,1.38-3.18,1.45-1.99,.12-3.98,.29-5.98,.45-.1,0-.21,.03-.37,.06l-.45,4.14c-.14-.18-.23-.27-.29-.38-1.96-3.07-3.92-6.15-5.88-9.22-.14-.22-.22-.38-.06-.66,1.92-3.34,3.82-6.69,5.73-10.04,.03-.06,.08-.11,.2-.3Z"/></svg>