<?xml version="1.0" encoding="UTF-8"?><svg id="a" xmlns="http://www.w3.org/2000/svg" viewBox="0 0 129.97 130.65"><defs><style>.b{fill:#fff;}.c{fill:#8b191b;}</style></defs><rect class="c" x="-.34" width="130.66" height="130.65"/><g><path class="b" d="M63.65,53.6c-3.53,0-6.39,2.87-6.39,6.39s2.87,6.39,6.39,6.39,6.39-2.87,6.39-6.39-2.87-6.39-6.39-6.39Z"/><path class="b" d="M63.65,39.57c-11.85,0-21.46,9.61-21.46,21.46,0,10.1,15.6,28.38,20.2,33.55,.67,.76,1.85,.76,2.52,0,4.6-5.17,20.2-23.45,20.2-33.55,0-11.85-9.61-21.46-21.46-21.46Zm0,31.04c-5.85,0-10.61-4.76-10.61-10.61s4.76-10.61,10.61-10.61,10.61,4.76,10.61,10.61-4.76,10.61-10.61,10.61Z"/></g></svg>