<?xml version="1.0" encoding="UTF-8"?><svg id="a" xmlns="http://www.w3.org/2000/svg" viewBox="0 0 129.97 130.65"><defs><style>.b{fill:#fff;}.c{fill:#8b191b;}</style></defs><rect class="c" x="-.34" y="-.23" width="130.66" height="130.65"/><g><path class="b" d="M84.95,32.46c.6,.39,.8,.95,.78,1.66-.04,.96,0,1.93,0,2.92H44.16c0-1.22-.05-2.41,.03-3.59,.03-.35,.45-.66,.7-.99h40.05Z"/><path class="b" d="M32.58,46.4c.15-.03,.31-.07,.46-.07,3.15,0,6.3,0,9.46,0,.13,0,.26,.02,.44,.04v4.59c-.25,0-.49,0-.73,0-2.66,0-5.31-.02-7.97,.01-.71,0-1.27-.18-1.66-.78v-3.79Z"/><path class="b" d="M34.89,53.3h60.06v.76c0,13.8,0,27.6,0,41.4,0,1.33-.34,1.68-1.68,1.68-18.9,0-37.8,0-56.69,0-1.34,0-1.68-.34-1.68-1.67,0-13.8,0-27.6,0-41.4v-.76Zm27.54,19.57c-2.11-2.3-4.92-3.44-8.18-3.46-3.53-.01-6.61-.9-8.87-3.86-.82-1.08-2.51-.65-2.9,.65-.07,.24-.11,.48-.16,.73-.5,2.75-.64,5.51-.27,8.28,.66,4.9,2.8,8.94,6.94,11.8,4.14,2.86,9.14,2.72,12.67-.42,.69-.62,1.26-1.38,1.9-2.09,.06,.07,.16,.17,.24,.27,3.3,4.11,8.82,5.5,13.59,3.25,4.56-2.15,7.65-5.71,9.3-10.48,1.66-4.8,1.57-9.69,.63-14.62-.15-.8-.59-1.36-1.42-1.54-.83-.18-1.44,.16-1.93,.81-.89,1.19-1.99,2.15-3.3,2.84-2.08,1.09-4.33,1.49-6.66,1.47-3.2-.02-6.13,.83-8.57,2.93-1.14,.98-2.02,2.27-3.01,3.42Z"/><path class="b" d="M70.65,50.91h-11.47v-4.52h11.47v4.52Z"/><path class="b" d="M56.79,50.92h-11.46v-4.53h11.46v4.53Z"/><path class="b" d="M73.07,46.37h11.45v4.54h-11.45v-4.54Z"/><path class="b" d="M97.25,46.39c0,1.16,.02,2.26,0,3.37-.02,.8-.5,1.2-1.4,1.2-2.25,.01-4.51,0-6.76,0-.72,0-1.43,0-2.19,0v-4.57h10.36Z"/><path class="b" d="M59.59,39.39c-.77,1.54-1.47,2.96-2.2,4.38-.06,.12-.28,.23-.42,.23-3.26,0-6.52-.01-9.78-.02-.01,0-.03-.03-.14-.15,.71-.69,1.44-1.38,2.15-2.08,.79-.77,1.45-1.85,2.39-2.23,.97-.4,2.21-.12,3.33-.13,1.51,0,3.01,0,4.68,0Z"/><path class="b" d="M82.89,43.96c-.37,.02-.57,.05-.76,.05-2.99,0-5.99,0-8.98,.01-.45,0-.68-.13-.87-.54-.63-1.33-1.31-2.65-2-4.05,.28-.02,.47-.04,.66-.04,2.25,0,4.5-.02,6.75,.02,.34,0,.75,.17,.99,.4,1.38,1.32,2.73,2.68,4.21,4.16Z"/><path class="b" d="M69.95,43.98h-10.07c.2-.4,.37-.75,.54-1.1,.51-1.03,1-2.06,1.55-3.07,.11-.2,.43-.4,.65-.4,1.53-.04,3.06-.02,4.59,0,.18,0,.45,.07,.51,.2,.74,1.43,1.46,2.87,2.21,4.38Z"/><path class="b" d="M93.91,44.01c-.35,0-.7,0-1.05,0-2.03,0-4.05,.02-6.08-.02-.34,0-.75-.16-.99-.39-1.25-1.2-2.47-2.44-3.69-3.67-.13-.13-.25-.29-.47-.54,1.68,0,3.23,0,4.77,0,.12,0,.26,.07,.37,.14,2.39,1.43,4.78,2.87,7.17,4.3l-.03,.17Z"/><path class="b" d="M48.2,39.59c-.31,.27-.64,.53-.94,.82-1.09,1.08-2.16,2.17-3.26,3.24-.18,.17-.45,.34-.68,.34-2.41,.02-4.82,.01-7.22,0-.06,0-.12-.04-.27-.08,.16-.11,.25-.19,.35-.25,2.25-1.35,4.51-2.71,6.77-4.06,.15-.09,.32-.21,.48-.21,1.54-.02,3.08,0,4.63,0l.13,.2Z"/><path class="b" d="M65.96,83.99c1.61-.53,3.01-.94,4.37-1.46,4.48-1.7,8.05-4.55,10.67-8.57,.45-.68,.39-1.33-.16-1.74-.58-.43-1.26-.3-1.73,.42-3.26,5.08-8.11,7.71-13.82,9.04-.54,.13-.74-.03-.93-.51-1.84-4.68,.55-9.81,5.43-11.62,1.5-.56,3.05-.72,4.64-.73,3.03-.02,5.91-.68,8.44-2.42,.81-.56,1.53-1.25,2.38-1.95,.1,.68,.21,1.35,.28,2.02,.43,4.03,.15,7.97-1.53,11.72-1.45,3.24-3.78,5.69-6.86,7.41-3.39,1.89-7.51,1.45-10.41-1.04-.22-.19-.46-.34-.77-.56Z"/><path class="b" d="M60.48,84.55c-1.4,1.33-2.97,2.03-4.78,2.17-2.92,.23-5.17-1.17-7.17-3.06-2.73-2.57-4.03-5.84-4.29-9.5-.12-1.76,.06-3.55,.11-5.33,0-.21,.07-.43,.13-.75,1.21,1.21,2.5,2.1,3.99,2.67,1.83,.7,3.73,.94,5.69,.97,2.89,.04,5.38,1.01,7.13,3.45,.28,.39,.36,.76,.28,1.25-.25,1.67-.09,3.32,.4,4.94,.1,.32,.01,.7,.01,1.12-4.77-1.04-8.82-2.98-11.66-6.96-.2-.28-.38-.56-.59-.83-.47-.59-1.12-.71-1.66-.3-.51,.38-.62,1.02-.22,1.62,1.3,1.97,2.86,3.71,4.81,5.08,2.11,1.48,4.43,2.48,6.9,3.18,.27,.08,.55,.16,.92,.27Z"/></g></svg>