<?xml version="1.0" encoding="UTF-8"?><svg id="a" xmlns="http://www.w3.org/2000/svg" viewBox="0 0 129.97 130.65"><defs><style>.b{fill:#fff;}.c{fill:#8b191b;}</style></defs><rect class="c" x="-.34" y="0" width="130.66" height="130.65"/><g><path class="b" d="M64.85,106.38c-1.23-.33-1.82-1.2-2.05-2.39-.13-.71-.34-1.23-1.18-1.51-1.13-.38-1.76-1.35-1.85-2.57-.06-.82-.06-1.64-.03-2.46,.05-1.12,.83-1.88,1.94-1.89,4.01-.02,8.03-.02,12.04,0,1.14,0,1.92,.8,1.96,1.94,.03,.77,.03,1.55-.02,2.32-.07,1.32-.94,2.45-2.21,2.83-.43,.13-.59,.34-.67,.73-.05,.25-.13,.48-.18,.73-.24,1.14-.86,1.94-2.01,2.26h-5.75Z"/><path class="b" d="M34.06,69.7c.58-1.44,1-1.72,2.57-1.72,2,0,4.01-.01,6.01,0,1.36,.01,2.25,.89,2.16,2.08-.08,1.01-.83,1.79-1.88,1.8-2.3,.03-4.6,.04-6.89,0-1.11-.02-1.68-.75-1.96-1.76v-.41Z"/><path class="b" d="M67.71,92.94c-1.64,0-3.28,0-4.93,0-1.93,0-2.92-.82-3.27-2.69-.58-3.1-1.89-5.84-4.05-8.14-2.3-2.44-3.86-5.27-4.6-8.56-1.84-8.1,2.84-16.79,10.61-19.69,7.65-2.85,15.74-.37,20.47,6.29,4.44,6.25,3.97,15.36-1.17,21.04-2.13,2.35-3.88,4.88-4.6,8.02-.09,.38-.16,.76-.23,1.14-.33,1.68-1.37,2.57-3.1,2.58-1.71,.02-3.42,0-5.13,0Zm-12.43-23.44c0,.14,0,.27,0,.41,0,1.12,.76,1.95,1.82,2.01,1.09,.06,1.91-.64,2.04-1.76,.03-.25,.05-.5,.07-.75,.23-2.94,1.63-5.16,4.1-6.73,1.39-.88,2.93-1.17,4.55-1.27,1.18-.08,1.87-.96,1.79-2.08-.07-1.03-.93-1.79-2.05-1.79-6.53,0-12.08,5.4-12.33,11.96Z"/><path class="b" d="M95.96,71.88c-1.07,0-2.14,.01-3.21,0-1.24-.02-2.1-.83-2.11-1.95,0-1.09,.82-1.92,2.04-1.94,2.21-.03,4.42-.03,6.62,0,1.2,.02,2.05,.86,2.04,1.94,0,1.11-.88,1.93-2.11,1.95-1.09,.01-2.19,0-3.28,0Z"/><path class="b" d="M45.59,94.29c-1.04-.06-1.63-.39-1.99-1.08-.34-.67-.29-1.32,.12-1.94,.15-.23,.35-.42,.54-.61,1.46-1.47,2.92-2.94,4.4-4.4,.9-.88,2.06-.92,2.85-.13,.81,.81,.78,1.96-.11,2.86-1.54,1.56-3.07,3.11-4.65,4.63-.37,.35-.91,.53-1.17,.67Z"/><path class="b" d="M90.11,45.48c.83,.15,1.4,.51,1.75,1.19,.37,.72,.33,1.47-.22,2.04-1.68,1.74-3.38,3.45-5.12,5.13-.72,.69-1.91,.57-2.61-.13-.71-.72-.8-1.84-.08-2.6,1.64-1.71,3.32-3.38,5.03-5.03,.32-.31,.83-.41,1.25-.61Z"/><path class="b" d="M89.85,94.29c-.24-.13-.77-.29-1.13-.63-1.61-1.55-3.18-3.13-4.75-4.73-.85-.87-.84-2.02-.04-2.8,.77-.76,1.93-.77,2.76,.04,1.61,1.58,3.2,3.18,4.78,4.79,.61,.62,.77,1.38,.39,2.2-.35,.73-.95,1.07-2.01,1.13Z"/><path class="b" d="M50.07,54.4c-.45-.24-.97-.4-1.32-.74-1.61-1.55-3.19-3.13-4.75-4.72-.84-.86-.83-2.02-.03-2.8,.77-.75,1.94-.75,2.76,.05,1.61,1.58,3.2,3.18,4.79,4.79,.59,.61,.75,1.34,.41,2.14-.3,.71-1,1.16-1.86,1.28Z"/><path class="b" d="M69.66,41.65c0,1.12,.01,2.23,0,3.35-.02,1.2-.83,2.01-1.95,2.01-1.09,0-1.9-.82-1.91-1.98-.02-2.23-.02-4.46,0-6.7,0-1.18,.85-2.03,1.95-2.01,1.07,.01,1.89,.85,1.91,1.99,.02,1.12,0,2.23,0,3.35Z"/></g></svg>