<?xml version="1.0" encoding="UTF-8"?><svg id="a" xmlns="http://www.w3.org/2000/svg" viewBox="0 0 129.97 130.65"><defs><style>.b{fill:#fff;}.c{fill:#8b191b;}</style></defs><rect class="c" x="-.34" width="130.66" height="130.65"/><path class="b" d="M32.88,41.96c.72-1.14,1.25-1.3,2.52-.76,1.96,.85,3.91,1.71,5.88,2.54,1.18,.5,1.85,1.35,2.08,2.61,.25,1.38,.56,2.75,.87,4.2h.8c15.06,0,30.12,0,45.18,0,.49,0,1,.03,1.46,.17,1.47,.43,2.35,1.93,2.05,3.44-1.38,6.72-2.76,13.43-4.15,20.15-.32,1.55-1.41,2.46-3,2.55-.24,.01-.47,0-.71,0H49.65c.29,1.43,.57,2.79,.86,4.22h.76c11.51,0,23.02,0,34.54,0,.33,0,.68,.02,1,.12,.64,.19,1.03,.79,1.01,1.45-.02,.66-.45,1.22-1.1,1.38-.27,.06-.55,.09-.82,.09-11.67,0-23.34,0-35.01,0-1.91,0-2.99-.9-3.37-2.75-2.2-10.68-4.41-21.36-6.62-32.04-.16-.78-.3-1.56-.5-2.32-.06-.22-.27-.48-.47-.57-1.89-.85-3.8-1.68-5.71-2.49-.59-.25-1.07-.58-1.33-1.18v-.83Z"/><path class="b" d="M86.58,73.84c1.39-6.77,2.78-13.48,4.16-20.22H44.91c0,.13-.02,.23,0,.32,1.32,6.4,2.65,12.81,3.95,19.22,.12,.57,.33,.7,.88,.7,12.05-.02,24.09-.01,36.14-.01h.7Z"/><path class="b" d="M77.21,86.54c2.96,.01,5.36,2.42,5.35,5.37-.01,2.94-2.44,5.34-5.39,5.34-2.94,0-5.37-2.45-5.34-5.39,.03-2.97,2.42-5.33,5.39-5.32m2.31,5.36c0-1.3-1.02-2.36-2.3-2.38-1.3-.02-2.38,1.06-2.37,2.37,0,1.29,1.05,2.34,2.34,2.34,1.29,0,2.33-1.04,2.34-2.34"/><path class="b" d="M53.05,91.8c.07-3.02,2.48-5.33,5.49-5.26,2.95,.06,5.31,2.54,5.23,5.48-.08,2.97-2.55,5.28-5.56,5.22-2.86-.06-5.22-2.56-5.16-5.44m7.69,.11c.01-1.3-1.01-2.36-2.29-2.39-1.27-.03-2.37,1.02-2.39,2.3-.02,1.32,1.02,2.4,2.33,2.42,1.29,.02,2.34-1.03,2.35-2.33"/><path class="c" d="M67.78,61.33c-3.53,0-7.05,0-10.58,0-.79,0-1.38-.43-1.57-1.11-.17-.62,.09-1.32,.67-1.64,.28-.15,.64-.23,.96-.23,7.04-.01,14.07-.01,21.11,0,1.01,0,1.63,.6,1.63,1.49s-.66,1.5-1.69,1.5c-3.51,0-7.01,0-10.52,0"/><path class="c" d="M67.81,69.09c-3.11,0-6.22,0-9.33,0-1.12,0-1.75-.61-1.71-1.59,.03-.71,.59-1.31,1.31-1.39,.1-.01,.2,0,.3,0,6.28,0,12.56,0,18.84,0,1.14,0,1.85,.88,1.57,1.91-.19,.67-.71,1.07-1.52,1.08-1.59,.02-3.17,0-4.75,0h-4.69"/></svg>