<?xml version="1.0" encoding="UTF-8"?><svg id="a" xmlns="http://www.w3.org/2000/svg" viewBox="0 0 129.97 130.65"><defs><style>.b{fill:#fff;}.c{fill:#8b191b;}</style></defs><rect class="c" x=".51" y="-.23" width="130.66" height="130.65"/><g><path class="b" d="M82.64,51.72c-1.88,0-3.4,1.54-3.4,3.42,0,1.88,1.54,3.41,3.42,3.4,1.88,0,3.41-1.54,3.4-3.42,0-1.88-1.54-3.4-3.42-3.4Z"/><path class="b" d="M67.49,56.15c-7.9,.03-14.3,6.48-14.27,14.39s6.48,14.3,14.39,14.27c7.9-.03,14.3-6.48,14.27-14.39-.03-7.9-6.48-14.3-14.39-14.27Zm.09,23.51c-5.06,.02-9.2-4.08-9.22-9.14-.02-5.06,4.08-9.19,9.14-9.21s9.19,4.08,9.21,9.14c.02,5.06-4.08,9.19-9.14,9.21Z"/><path class="b" d="M79.04,99.53l-23.23,.09c-9.64,.04-17.51-7.77-17.55-17.41l-.09-23.23c-.04-9.64,7.77-17.51,17.41-17.55l23.23-.09c9.64-.04,17.51,7.77,17.55,17.41l.09,23.23c.04,9.64-7.77,17.51-17.41,17.55Zm-23.44-52.62c-6.62,.03-11.98,5.43-11.96,12.05l.09,23.23c.03,6.62,5.43,11.98,12.05,11.96l23.23-.09c6.62-.03,11.98-5.43,11.96-12.05l-.09-23.23c-.03-6.62-5.43-11.98-12.05-11.96l-23.23,.09Z"/></g></svg>